<?xml version="1.0" encoding="UTF-8"?><svg version="1.1" width="18px" height="20px" viewBox="0 0 18.0 20.0" xmlns="http://www.w3.org/2000/svg" xmlns:xlink="http://www.w3.org/1999/xlink"><defs><clipPath id="i0"><path d="M414,0 L414,896 L0,896 L0,0 L414,0 Z"></path></clipPath><clipPath id="i1"><path d="M9.30469835,13.5714286 L9.30469835,15.6977708 L11.4285714,15.6977708 L11.4285714,17.1635587 L9.31464054,17.1635587 L9.31464054,19.2857143 L7.83457961,19.2857143 L7.83457961,17.1731217 L5.71428571,17.1731217 L5.71428571,15.7068931 L7.8243281,15.7068931 L7.8243281,13.5714286 L9.30469835,13.5714286 Z M12.9711668,2.00960032 C14.1346943,3.38572635 14.5454459,4.97139015 14.183975,6.71080718 C13.8220772,8.45239106 12.7709609,9.72506214 11.1380571,10.595393 C12.9379651,11.1782723 14.3851295,12.1778757 15.4830601,13.6364338 C16.5826033,15.0972048 17.130288,16.7370395 17.1428571,18.5651125 L15.5857954,18.5651125 C15.5086253,16.2980014 14.5825843,14.4397311 12.7055063,13.075223 C11.2957175,12.0504012 9.68861611,11.6412378 7.94235248,11.7814828 C4.43312954,12.06331 1.52533047,15.0001581 1.54392339,18.5714286 L0,18.5714286 C0.00502767593,16.7506399 0.551004824,15.1140324 1.6453781,13.6532153 C2.74359327,12.1872346 4.19232283,11.1836663 5.98838891,10.6026773 C3.82155545,9.37569422 2.70469993,7.57662001 2.8602733,5.13233544 C2.95613116,3.62601476 3.64070141,2.36201103 4.8135254,1.37047555 C7.24350552,-0.683870529 10.9382782,-0.394574711 12.9711668,2.00960032 Z M4.41368287,5.34198364 C4.29733486,7.6157369 6.13082392,9.47056636 8.42301727,9.54898897 C10.5993843,9.6263154 12.5734112,8.04516578 12.732115,5.74122186 C12.8782022,3.62065988 11.102816,1.66781358 8.89561881,1.52782214 C6.52929096,1.3777367 4.53041032,3.06078548 4.41368287,5.34198364 Z"></path></clipPath></defs><g transform="translate(-355.0 -660.0)"><g clip-path="url(#i0)"><g transform="translate(20.0 642.0)"><g transform="translate(20.457890524969116 16.0)"><g transform="translate(314.0 2.0)"><g transform="translate(1.4285714285714288 0.7142857142857135)"><g clip-path="url(#i1)"><polygon points="0,2.22044605e-16 17.1428571,2.22044605e-16 17.1428571,19.2857143 0,19.2857143 0,2.22044605e-16" stroke="none" fill="#221F1F"></polygon></g></g></g></g></g></g></g></svg>