<?xml version="1.0" encoding="UTF-8"?>
<svg width="18px" height="20px" viewBox="0 0 18 20" version="1.1" xmlns="http://www.w3.org/2000/svg" xmlns:xlink="http://www.w3.org/1999/xlink">
    <title>icon/add-friend</title>
    <g id="🥇-Design" stroke="none" stroke-width="1" fill="none" fill-rule="evenodd">
        <g id="New-Message" transform="translate(-215.000000, -125.000000)" fill="#FFFFFF">
            <g id="2-btns" transform="translate(20.000000, 125.000000)">
                <g id="icon/add-friend" transform="translate(194.000000, 0.000000)">
                    <path d="M10.7332698,14.2857143 L10.7332698,16.4120565 L12.8571429,16.4120565 L12.8571429,17.8778444 L10.743212,17.8778444 L10.743212,20 L9.26315103,20 L9.26315103,17.8874074 L7.14285714,17.8874074 L7.14285714,16.4211788 L9.25289953,16.4211788 L9.25289953,14.2857143 L10.7332698,14.2857143 Z M14.3997382,2.72388603 C15.5632657,4.10001206 15.9740174,5.68567586 15.6125464,7.4250929 C15.2506486,9.16667677 14.1995323,10.4393479 12.5666286,11.3096788 C14.3665365,11.892558 15.8137009,12.8921615 16.9116315,14.3507195 C18.0111747,15.8114905 18.5588594,17.4513252 18.5714286,19.2793982 L17.0143668,19.2793982 C16.9371967,17.0122871 16.0111557,15.1540168 14.1340777,13.7895087 C12.7242889,12.7646869 11.1171875,12.3555235 9.37092391,12.4957686 C5.86170097,12.7775957 2.9539019,15.7144439 2.97249482,19.2857143 L1.42857143,19.2857143 C1.4335991,17.4649256 1.97957625,15.8283181 3.07394952,14.367501 C4.1721647,12.9015204 5.62089426,11.897952 7.41696034,11.316963 C5.25012688,10.0899799 4.13327136,8.29090572 4.28884473,5.84662115 C4.38470258,4.34030048 5.06927284,3.07629674 6.24209683,2.08476126 C8.67207695,0.0304151856 12.3668496,0.319711003 14.3997382,2.72388603 Z M5.8422543,6.05626935 C5.72590629,8.33002262 7.55939535,10.1848521 9.8515887,10.2632747 C12.0279558,10.3406011 14.0019826,8.75945149 14.1606864,6.45550757 C14.3067736,4.33494559 12.5313874,2.38209929 10.3241902,2.24210785 C7.95786238,2.09202242 5.95898175,3.77507119 5.8422543,6.05626935 Z" id="icon"></path>
                </g>
            </g>
        </g>
    </g>
</svg>