<?xml version="1.0" encoding="UTF-8"?>
<svg width="24px" height="24px" viewBox="0 0 24 24" version="1.1" xmlns="http://www.w3.org/2000/svg" xmlns:xlink="http://www.w3.org/1999/xlink">
    <title>icon/add-friend</title>
    <g id="🥇-Design" stroke="none" stroke-width="1" fill="none" fill-rule="evenodd">
        <g id="Posts" transform="translate(-336.000000, -60.000000)">
            <g id="r_icons" transform="translate(302.000000, 59.999984)">
                <g id="icon/add-friend" transform="translate(34.000000, 0.000000)">
                    <rect id="Rectangle" x="0" y="0" width="24" height="24"></rect>
                    <path d="M19.9215923,18.4294924 C19.9215923,17.8210202 19.9213245,17.243451 19.9218065,16.6659353 C19.9219136,16.5322011 19.918593,16.3980383 19.9271623,16.2647325 C19.9485855,15.9290311 20.203575,15.6791296 20.5301715,15.6665435 C20.8456816,15.6543323 21.1377868,15.8699567 21.1646729,16.1955356 C21.1998069,16.6208931 21.1875957,17.0503209 21.1922017,17.4780349 C21.1954687,17.7809053 21.1927908,18.0837756 21.1927908,18.4294924 L21.4892342,18.4294924 C22.077997,18.4295459 22.6668134,18.4263324 23.2555227,18.4306706 C23.6772382,18.433777 23.9514551,18.6958362 23.9466452,19.0785079 C23.9418146,19.4474153 23.669151,19.7014943 23.2602894,19.7040651 C22.5840128,19.7082426 21.9076827,19.7051362 21.1927908,19.7051362 C21.1927908,20.0260021 21.1959507,20.3254447 21.1920946,20.6247803 C21.1864174,21.0702755 21.1955758,21.5171632 21.1602276,21.9604626 C21.1370905,22.2502648 20.879316,22.4482687 20.5895138,22.4699596 C20.3263299,22.4897225 20.0454719,22.316516 19.9647064,22.0583666 C19.9258769,21.9342192 19.924163,21.7954505 19.9233597,21.6631623 C19.9195035,21.0226625 19.9216458,20.3821626 19.9216458,19.7053505 C19.6796709,19.7053505 19.4601367,19.7053505 19.2404955,19.7052969 C18.7766298,19.7052969 18.3127107,19.7083497 17.8488986,19.7043329 C17.43361,19.7006374 17.1436472,19.4288842 17.1492172,19.0579952 C17.1547337,18.6978714 17.4398763,18.4339912 17.8414005,18.4308313 C18.4301097,18.4262253 19.0189261,18.4295459 19.607689,18.4294924 L19.9215923,18.4294924 Z M24,12.8539143 C23.9320885,13.3017125 23.8739781,13.7512781 23.7935876,14.1968805 C23.7156607,14.6290934 23.4343207,14.8377017 23.0467751,14.7787344 C22.6990768,14.7258726 22.4853269,14.4076847 22.552917,13.9941636 C22.7178756,12.9855062 22.7795208,11.9745458 22.6750828,10.9556054 C22.3979738,8.2518916 21.266508,5.96362708 19.27383,4.12503532 C17.0226811,2.04784277 14.3358917,1.1066149 11.2856043,1.29487119 C6.44155313,1.59377825 2.35866794,5.15790088 1.48331638,9.96922811 C0.727881127,14.1212031 2.05949309,17.5938487 5.27018663,20.3389628 C5.29691206,20.361832 5.32738655,20.380256 5.3679835,20.4092844 C5.67149655,20.1649529 5.96520849,19.9079817 6.27927246,19.6789678 C8.17404654,18.2972256 10.2936034,17.6830763 12.6355866,17.8261296 C13.5407164,17.8814015 14.4178354,18.0608742 15.2686038,18.3699573 C15.6338157,18.5027275 15.7965784,18.806187 15.7013523,19.1458517 C15.5924154,19.5343613 15.237326,19.697606 14.8034528,19.5480721 C13.8157366,19.2076041 12.8000096,19.0360579 11.7564324,19.0742983 C9.83129099,19.1447806 8.11631104,19.7826025 6.63152327,21.0198989 C6.59049786,21.0540153 6.55032938,21.0895778 6.51230322,21.1270148 C6.50084181,21.1383691 6.49794968,21.1584533 6.48429239,21.1905881 C7.37838925,21.7333447 8.33188189,22.1377609 9.34793026,22.3901261 C11.5481455,22.9366317 13.7119948,22.8196075 15.8356221,22.0170948 C15.9106033,21.9888162 15.984674,21.9573777 16.0611012,21.9335444 C16.4317224,21.8181805 16.7592294,21.9711956 16.8864296,22.3171802 C17.0060781,22.6425449 16.8626499,22.9944208 16.5060073,23.118461 C15.8767011,23.3373525 15.2463773,23.5760604 14.5965048,23.7094197 C10.8669416,24.4743883 7.47179436,23.7094733 4.4893649,21.3330523 C2.12960048,19.4528996 0.673573339,16.9919106 0.181000633,14.0124268 C-0.406262574,10.4603012 0.436204389,7.24194885 2.69843974,4.43979554 C4.5863584,2.10124007 7.04729384,0.68511363 10.0138701,0.165226356 C10.3894187,0.0994571615 10.7686091,0.0545755776 11.1460857,2.22044605e-13 L12.859941,2.22044605e-13 C13.167096,0.0408111778 13.4754292,0.0746062607 13.7813524,0.123504693 C16.3575982,0.535151297 18.589359,1.63994523 20.4424114,3.47976882 C22.2046831,5.22940078 23.3292935,7.32710603 23.787964,9.77272389 C23.8729605,10.2258244 23.9299997,10.68412 24,11.140059 L24,12.8539143 Z M12.0143087,8.18120253 C9.89014585,8.17559291 8.1899479,9.86866765 8.18780354,11.9918129 C8.18566326,14.1036039 9.86920468,15.8003742 11.9785856,15.8123281 C14.1016237,15.8243146 15.8104981,14.1339177 15.8182371,12.0141466 C15.8259763,9.88859122 14.1371327,8.18689364 12.0143087,8.18120253 M12.0124342,6.90733318 C14.8365998,6.91189247 17.0985138,9.18810645 17.091674,12.0188062 C17.0848566,14.8369197 14.8031261,17.0923532 11.9666957,17.0847139 C9.16582778,17.0770356 6.9070737,14.7918239 6.91428672,11.9731212 C6.92158791,9.16464805 9.19785545,6.90278761 12.0124342,6.90733318" id="add" fill="#FFFFFF"></path>
                </g>
            </g>
        </g>
    </g>
</svg>