<?xml version="1.0" encoding="UTF-8"?>
<svg width="37px" height="37px" viewBox="0 0 37 37" version="1.1" xmlns="http://www.w3.org/2000/svg" xmlns:xlink="http://www.w3.org/1999/xlink">
    <title>icon/anxiety@3x</title>
    <g id="🥇-Design" stroke="none" stroke-width="1" fill="none" fill-rule="evenodd">
        <g id="Blog---Bible" transform="translate(-212.000000, -207.000000)" fill="#FFFFFF">
            <g id="Large-tabs" transform="translate(10.000000, 185.000000)">
                <g id="btn-primary-copy" transform="translate(220.000000, 70.000000) rotate(90.000000) translate(-220.000000, -70.000000) translate(150.000000, 30.000000)">
                    <g id="icon/anxiety" transform="translate(40.499998, 39.499974) rotate(-90.000000) translate(-40.499998, -39.499974) translate(21.999972, 20.999976)">
                        <path d="M20.3717944,28.2651979 C20.2450792,28.3926207 20.0315602,28.4718615 19.8525934,28.4849077 C19.4207604,28.5162631 18.9854016,28.495063 18.5515236,28.495063 C18.3755185,28.4951371 18.1957056,28.469786 18.024425,28.4993623 C17.2195683,28.6385711 16.6636291,28.2869169 16.1102989,27.6724855 C12.9486944,24.1616504 10.9288665,20.056991 10.2574945,15.2694818 C10.0242313,13.6051282 9.8886312,11.9062318 9.9095036,10.225941 C9.95237664,6.77551867 11.5063128,4.15145425 14.33685,2.46908797 C19.4701913,-0.582091117 25.9303403,2.6139304 27.0628796,8.70020321 C27.2560903,9.73841356 27.2024285,10.7827023 27.155113,11.8315868 C27.0470137,14.2275651 26.7503577,16.5852203 26.0277213,18.8718627 C24.8822073,22.4970744 22.9965693,25.6283097 20.3717944,28.2651979 M36.9370059,34.4408668 C36.6153875,31.7062804 34.5771553,29.8065763 31.9581627,29.804649 C30.1634183,29.8033148 28.3686739,29.8113204 26.5740705,29.8021287 C25.0715397,29.7944938 23.8657355,28.8015745 23.5131612,27.3101571 C23.4250881,26.9376733 23.44589,26.625973 23.6933972,26.2870684 C25.5946895,23.6842782 26.9001313,20.7748282 27.6699421,17.5955592 C28.1144678,15.7600484 28.281729,13.8875486 28.3967388,12.004523 C28.4934147,10.4207444 28.4747988,8.85586805 28.0122212,7.32212464 C26.3064666,1.66719168 20.5549215,-1.36360273 15.2331645,0.596810595 C11.4982036,1.97266539 8.7460083,5.79683159 8.65031963,9.82588238 C8.60166437,11.8739128 8.74001454,13.9197194 9.08031929,15.9385441 C9.72278024,19.7498123 11.1645977,23.2026808 13.3728413,26.3035244 C13.4887677,26.4663054 13.5501862,26.7366433 13.5214161,26.9387111 C13.2715819,28.6943881 12.0382064,29.7986448 10.3459201,29.8033148 C8.56295171,29.808133 6.7799833,29.8007204 4.99708541,29.8079106 C4.68216602,29.8091707 4.36407345,29.8337065 4.05310289,29.88515 C1.97961323,30.2276126 0.197349977,32.1931407 0.0592818681,34.3909058 C0.00477387614,35.2581813 -0.000655768598,36.1288667 5.52388106e-05,37 L1.25648328,37 C1.25260496,36.116117 1.24809201,35.2320148 1.32558785,34.3560665 C1.47945128,32.6175127 3.04220176,31.1611569 4.70458974,31.1318771 C6.56879128,31.0989651 8.43376847,31.1218701 10.2984636,31.1161624 C11.7829426,31.1116407 13.0225234,30.5459102 13.9219406,29.2813187 C14.2051283,28.8831873 14.4032045,28.4181201 14.632942,27.997232 C14.9611181,28.3242764 15.3488089,28.6436117 15.6564652,29.0329221 C16.1404793,29.645352 16.7103804,29.8749206 17.469332,29.8173246 C18.3559859,29.7501663 19.2510311,29.7886378 20.1419864,29.8082812 C20.4829258,29.8158421 20.7531388,29.727632 20.9906329,29.4661151 C21.3630219,29.0561977 21.7562128,28.6671838 22.1337494,28.2623811 C22.2133606,28.177062 22.2636377,28.0614252 22.3584097,27.9102821 C22.945587,29.5084411 23.9111471,30.5172975 25.371792,30.9338121 C25.8176575,31.0610125 26.2963125,31.1037092 26.7606529,31.1090463 C28.4726833,31.1289862 30.1861946,31.1584142 31.8968852,31.1061553 C33.8747567,31.0457426 35.7554587,32.667696 35.7357851,35.1384677 C35.7307785,35.7566795 35.7314837,36.3757808 35.732753,37 L37.0000552,37 L37.0000552,34.6881515 C36.9785391,34.6057974 36.9468779,34.5247034 36.9370059,34.4408668 M19.4186731,10.7089616 C19.8194796,11.3670532 20.5227949,11.7625902 21.1756216,11.6493996 C22.1136808,11.4866928 22.8906841,10.9758897 23.6717773,10.3681297 C22.8660745,9.77237815 22.083712,9.21643229 21.1020745,9.122218 C20.9373518,9.10642914 20.7052874,9.14793977 20.6027588,9.26135272 C20.1968047,9.71026046 19.8300569,10.1982327 19.4186731,10.7089616 M17.5807031,10.6935434 C17.1973843,10.2495279 16.8065909,9.85888332 16.4927293,9.40886369 C16.3179229,9.15831742 16.1494629,9.08078151 15.8840449,9.11109909 C14.9019139,9.2232519 14.1176475,9.77089563 13.2287371,10.4252068 C13.9450976,10.813257 14.5621027,11.2147241 15.2262117,11.4912886 C16.2015029,11.8974256 16.991763,11.5858735 17.5807031,10.6935434 M18.5129097,4.96018497 C18.1118916,5.38514998 17.6396536,6.25272202 17.4130188,6.95625296 C17.0685537,8.02529977 17.3841782,8.94060903 18.3086986,9.51523466 C18.3916241,9.56667818 18.5487312,9.59158456 18.6191051,9.54369909 C19.4076728,9.00776729 19.8952126,8.29593422 19.6381859,7.2214762 C19.4376416,6.38310985 19.009969,5.66972013 18.5129097,4.96018497 M20.973808,7.75622198 C22.5271095,7.89380005 23.7499783,8.74417482 24.9028259,9.73998504 C25.3957953,10.1657654 25.3980518,10.5725695 24.9170699,10.9939765 C24.0302044,11.7710406 23.0857283,12.4458106 21.9633431,12.7998369 C20.708249,13.1957445 19.6321922,12.8915309 18.727839,11.899427 C18.6559843,11.8206309 18.5845528,11.7414642 18.4910501,11.6383548 C18.3528409,11.7863847 18.2281706,11.9287809 18.094827,12.0613925 C17.2382829,12.9131016 16.233023,13.164908 15.1076057,12.8302286 C13.8875575,12.4673071 12.8620598,11.7373132 11.9271032,10.8610684 C11.6188122,10.5721248 11.6292484,10.1496801 11.9517129,9.85969871 C13.0942653,8.83223665 14.3138199,7.95502822 15.8664162,7.77393812 C15.9114047,7.76867517 15.9554765,7.75503596 16.0019458,7.74495481 C16.1464307,6.05873398 16.9909168,4.74129056 17.9897599,3.50975931 C18.279717,3.15232319 18.6841198,3.14305742 18.9687883,3.48907812 C19.8730709,4.58822014 20.6467601,5.76801136 20.9073125,7.23733919 C20.9350953,7.39367116 20.9481406,7.55289405 20.973808,7.75622198 M25.8781522,15.5433778 C25.8693379,16.0552186 25.649261,16.4148044 25.3159372,16.70612 C24.7451194,17.2049887 24.0597854,17.3940845 23.3404632,17.4736218 C22.4136158,17.5760641 21.5162436,17.4616875 20.6872708,16.9910608 C20.1668006,16.6955941 19.762962,16.2881228 19.7222044,15.5484925 C20.2442965,15.6054955 20.7249258,15.4207732 21.2269211,15.7972597 C22.0441179,16.4099862 23.9603594,16.3267425 24.6112116,15.6283263 C24.6547193,15.5816268 24.7327088,15.5484925 24.7953965,15.5470841 C25.1450092,15.539375 25.4947629,15.5433778 25.8781522,15.5433778 M11.0390389,15.5423622 C11.48018,15.5423622 11.8071574,15.5356909 12.1335002,15.5469581 C12.2174834,15.5499231 12.3129605,15.5915079 12.3807253,15.6460647 C13.3015084,16.3884377 15.0483732,16.3871034 15.9707782,15.6402087 C16.0231002,15.5979568 16.0893137,15.5495525 16.150027,15.54807 C16.5088066,15.5393972 16.8677978,15.5438448 17.2490012,15.5438448 C17.2380009,16.1679125 16.9256905,16.5469193 16.5115567,16.8509847 C15.969791,17.2488195 15.3468627,17.4067081 14.7009465,17.4770538 C13.835306,17.5713422 12.9846146,17.4848371 12.2093742,17.0579448 C11.8697041,16.8709987 11.5737532,16.5676005 11.3115084,16.2656107 C11.1702671,16.102978 11.1421317,15.8316765 11.0390389,15.5423622 M16.6625714,23.9557947 L20.3151709,23.9557947 L20.3151709,22.706918 L16.6625714,22.706918 L16.6625714,23.9557947 Z" id="icon"></path>
                    </g>
                </g>
            </g>
        </g>
    </g>
</svg>