<?xml version="1.0" encoding="UTF-8"?>
<svg width="30px" height="20px" viewBox="0 0 30 20" version="1.1" xmlns="http://www.w3.org/2000/svg" xmlns:xlink="http://www.w3.org/1999/xlink">
    <title>Fill 5</title>
    <g id="🥇-Design" stroke="none" stroke-width="1" fill="none" fill-rule="evenodd">
        <g id="Blog---Bible-Book-" transform="translate(-110.000000, -372.000000)" fill="#FFFFFF">
            <g id="note" transform="translate(19.000000, 359.000000)">
                <g id="title" transform="translate(91.000000, 11.000000)">
                    <path d="M6.93786359,9.4196765 C7.35903509,9.64333847 7.72828462,9.83249363 8.0903045,10.0350781 C8.2488189,10.1237239 8.37865373,10.1384781 8.55718408,10.0574805 C9.65304259,9.5603535 10.7589987,9.0857493 11.8562314,8.59151295 C12.055913,8.5015423 12.2036128,8.50256606 12.3986339,8.62035896 C14.7949916,10.0666943 17.1974438,11.5027921 19.6009116,12.9372036 C19.6949567,12.9933299 19.8417006,13.0655353 19.9175222,13.0300047 C20.4276601,12.7911669 20.9253105,12.5252296 21.4656815,12.2482115 C18.9178,10.7004635 16.4184348,9.18222385 13.8737798,7.63646308 C15.0550198,7.09133971 16.1913284,6.5669927 17.3777666,6.01952071 C17.0000327,5.81223894 16.6853938,5.62175891 16.3540253,5.46741167 C16.2391875,5.41393514 16.064481,5.40442017 15.948747,5.45235634 C14.9479493,5.86698011 13.9519914,6.29388903 12.9606938,6.73127646 C12.7746351,6.81335811 12.6385863,6.80269894 12.4698548,6.694963 C12.0080539,6.40011943 11.5373504,6.11900633 11.0630619,5.84493911 C10.9697936,5.79104103 10.8289052,5.74587504 10.7368318,5.77700946 C10.183794,5.96405688 9.63864305,6.1745906 9.04921804,6.39259177 C9.72043959,6.8119128 10.3576041,7.20991549 11.0422692,7.63754706 C9.66003323,8.23777293 8.33282616,8.81403071 6.93786359,9.4196765 M29.511557,10.2330858 C28.2984109,10.8823921 27.1245798,11.5105606 25.9508085,12.1388496 C22.783269,13.8343206 19.6145942,15.5275032 16.4491458,17.2268885 C15.6240703,17.6698163 15.2180153,18.3972296 15.1447032,19.3150025 C15.1140519,19.6990338 15.1396245,20.087642 15.1396245,20.4834767 C14.8371147,20.2983563 14.5074191,20.0981205 14.179277,19.8954757 C9.82243133,17.2046066 5.46552591,14.5138579 1.10933748,11.8219048 C0.0801589909,11.1859075 -0.302235341,9.88898123 0.258271101,8.81053788 C0.652794502,8.05144817 1.2098355,7.46663896 2.04327589,7.13415707 C6.23539325,5.46181109 10.4167558,3.76182353 14.5989548,2.06430504 C14.821341,1.97403328 14.9927612,1.97373218 15.2070813,2.09586101 C19.861358,4.74662273 24.5199965,7.38967612 29.1775594,10.0345361 C29.2789537,10.092168 29.3781969,10.1536539 29.511557,10.2330858 M20.7874633,19.4202392 C21.4619113,19.8859909 22.0905317,20.3201866 22.7904926,20.8037035 C22.3534876,20.8460993 22.0013861,20.8898802 21.6480298,20.9104759 C21.4663327,20.9211351 21.3559164,20.9488369 21.3364382,21.1708127 C21.3129568,21.4371716 21.2375534,21.6988934 21.1772068,22 C21.0774855,21.9349008 20.9977802,21.8875668 20.9229743,21.8333676 C20.3578074,21.4239229 19.7887569,21.0196572 19.2320744,20.5987704 C19.0688398,20.4753769 18.9426497,20.4509271 18.7626853,20.5614332 C18.4406376,20.7592 18.1065803,20.9380573 17.771806,21.1139035 C17.1525064,21.4392793 16.0853275,21.2719845 15.5420288,20.7215617 C16.6525259,21.06669 17.5288661,20.6597144 18.3944515,20.041121 C17.9682611,19.7289337 17.5491808,19.4218652 17.0878579,19.0840236 C17.6875598,18.7704512 18.2517109,18.4703082 18.8232112,18.1851602 C18.8782999,18.1576993 18.9912854,18.2051537 19.05689,18.2489346 C19.3884378,18.4699468 19.7080956,18.709447 20.0441843,18.9229316 C20.1243079,18.9738186 20.2768474,18.9959198 20.3534457,18.9534036 C23.0611561,17.4526281 25.763728,15.9425786 28.4666585,14.4331915 C28.4828505,14.4242185 28.4942028,14.4065134 28.5077659,14.3928432 C28.1373811,12.4852125 28.3222449,11.4707242 29.1131439,10.9690204 C28.9927494,11.356364 28.8423012,11.7561131 28.7498693,12.1689904 C28.6920919,12.427099 28.6835478,12.7105005 28.7205325,12.9728848 C28.7920522,13.4806709 29.1084835,13.8144175 29.5781713,14.0012842 C29.6974305,14.0486784 29.8208124,14.0853532 30,14.1467789 C26.9155715,15.9123475 23.8736246,17.6536469 20.7874633,19.4202392" id="Fill-5"></path>
                </g>
            </g>
        </g>
    </g>
</svg>