<?xml version="1.0" encoding="UTF-8"?>
<svg width="30px" height="24px" viewBox="0 0 30 24" version="1.1" xmlns="http://www.w3.org/2000/svg" xmlns:xlink="http://www.w3.org/1999/xlink">
    <title>icon/community-disable</title>
    <g id="🥇-Design" stroke="none" stroke-width="1" fill="none" fill-rule="evenodd">
        <g id="Posts" transform="translate(-32.000000, -829.000000)">
            <g id="Tap-bar" transform="translate(0.000000, 801.000000)">
                <g id="community" transform="translate(15.000000, 23.000000)">
                    <g id="icon/community-disable" transform="translate(16.000000, 0.000000)">
                        <path d="M-3.55271368e-15,0 L32.016,0 L32.016,28.4782197 L-3.55271368e-15,28.4782197 L-3.55271368e-15,0 Z" id="bg"></path>
                        <path d="M26.0998515,6.60173592 C25.7897418,7.05824757 25.4998471,7.50017252 25.1855851,7.92579162 C25.1519845,7.97116668 24.926614,7.96142485 24.8783165,7.90672472 C24.804395,7.82311167 24.7431488,7.64598744 24.7882229,7.56451029 C25.0114079,7.16077124 25.2624023,6.76984765 25.5265638,6.38887427 C25.5721842,6.32307783 25.7478912,6.28035963 25.8289153,6.31067913 C25.9264392,6.34714588 25.9869751,6.47311247 26.0998515,6.60173592 M3.15533906,26.8161063 C1.22075932,25.7492454 0.522630028,22.6929147 1.330303,20.7374111 C1.34669358,20.6977145 1.40318643,20.684899 1.44356189,20.673959 C4.56946337,19.8263674 7.69629365,18.9822142 10.8216488,18.1330077 C11.6546725,17.9067055 12.4244286,18.0155327 13.182165,18.4190112 C15.8314831,19.8296494 18.4814569,21.2398188 21.1533394,22.6109687 C22.2016261,23.1489054 22.2641288,24.1201713 21.8512502,24.8593524 C21.3998537,25.6675598 20.3153985,25.9791943 19.4488287,25.5308095 C18.3626252,24.9688048 17.2915557,24.3803356 16.2136567,23.8037962 C16.1435051,23.7662354 16.0707309,23.7329986 15.9826589,23.6896553 C15.8731698,23.8697489 15.7702916,24.0390588 15.6569235,24.225456 C16.0257115,24.4236268 16.3728639,24.6103887 16.7202895,24.7966817 C17.4965472,25.2128715 18.2671228,25.6391158 19.050647,26.0424902 C20.5977535,26.8390282 22.3784257,26.0446782 22.7099525,24.4015384 C22.7716357,24.0958428 22.7187487,23.769257 22.7187487,23.4291264 C23.6617532,23.1767243 24.6215854,22.9208319 25.5808712,22.6626994 C26.559334,22.3995136 27.538507,22.138568 28.5147298,21.8680888 C29.1382273,21.6953406 29.7218411,21.7498324 30.2525133,22.1185112 C30.8766118,22.5519968 31.0886513,23.1621897 30.9674156,23.8595903 C30.8355261,24.6184114 30.4228661,25.2003686 29.6018074,25.4247955 C26.9059401,26.1615281 24.2081604,26.8920092 21.5102169,27.6218131 C20.0611807,28.0137786 18.6155865,28.4189243 17.158191,28.7807786 C16.3099241,28.9913481 15.4835112,28.8889286 14.7175795,28.4390331 C12.9530247,27.4025438 11.1816405,26.3765777 9.41675783,25.3407135 C9.24208892,25.238242 9.09233369,25.209329 8.88564852,25.2665298 M24.9452119,14.0189641 C26.0016392,14.0228712 26.767844,14.7466842 26.7827048,15.7514995 C26.7906269,16.2875608 26.7841253,16.8237783 26.7841253,17.3878669 L19.1277046,17.3878669 C19.1642555,16.6805161 19.1278138,15.9740509 19.2550047,15.2954046 C19.4006076,14.5182981 20.1562679,14.0212042 20.9871608,14.0190162 C22.3065476,14.0154737 23.6258251,14.0140671 24.9452119,14.0189641 Z M29.4043829,14.1671285 C30.4101087,14.1716608 30.9851448,14.7276746 30.9861282,15.6894071 L30.9861828,16.8386307 L27.364084,16.8386307 C27.364084,16.3611767 27.3950622,15.8951837 27.3555609,15.4346607 C27.3144752,14.9552271 27.0693268,14.5479456 26.6650805,14.1917175 C26.7639157,14.1808296 26.8293687,14.167389 26.8948218,14.1672848 C27.7313968,14.1658782 28.5678626,14.1634297 29.4043829,14.1671285 Z M19.4397374,14.128281 C18.6870821,14.7057118 18.617491,15.4314812 18.6207735,16.1726402 L18.6269184,16.6499114 C18.6273823,16.7028863 18.627551,16.7557945 18.6272019,16.8085873 L15.0005683,16.8085873 C15.0391408,16.2295995 14.9965799,15.6310759 15.137375,15.0746453 C15.3047228,14.4131384 15.9121029,14.157246 16.5825321,14.1356785 C17.499421,14.1061405 18.4181674,14.128281 19.4397374,14.128281 Z M22.9848388,9.18159845 C24.1810231,9.1794144 25.1386698,10.0854569 25.1388884,11.2195209 C25.1391069,12.3423322 24.1610812,13.2752038 22.9868057,13.2723452 C21.8184854,13.2694733 20.846251,12.3342574 20.8404891,11.2076431 C20.8347776,10.1027526 21.8074491,9.18379041 22.9848388,9.18159845 M27.9954381,10.3772606 C28.9094859,10.3814992 29.6802801,11.1255773 29.6714838,11.9952573 C29.6626875,12.8609259 28.8709134,13.6018261 27.9654433,13.5917196 C27.0495925,13.5814047 26.2885781,12.8417548 26.293742,11.9667611 C26.2989041,11.0943201 27.0711735,10.3730077 27.9954381,10.3772606 M19.6833828,11.9921836 C19.6783296,12.8685839 18.903547,13.6003153 17.9898817,13.5915112 C17.0792212,13.5827592 16.2983195,12.8255531 16.3137267,11.966188 C16.3295163,11.0856201 17.0947376,10.3732161 18.0205867,10.3771072 C18.9538661,10.3810825 19.6884917,11.0946326 19.6833828,11.9921836 M23.1757453,6.63305044 C23.1757453,6.82319851 23.1818098,7.01355496 23.1741609,7.20344255 C23.1655285,7.41651258 23.0102551,7.57738306 22.8264621,7.55586767 C22.6099426,7.53054933 22.5192481,7.393799 22.5259136,7.19229414 C22.5388075,6.80345437 22.5549796,6.41461459 22.5629017,6.02561852 C22.5671632,5.81676822 22.6999815,5.71742236 22.8883093,5.72117323 C23.0771833,5.724872 23.209947,5.83776265 23.2147549,6.03687112 C23.2195628,6.23551073 23.215793,6.43430663 23.215793,6.63305044 L23.1757453,6.63305044 Z M28.8357228,8.40025013 C28.793599,8.45380416 28.7298397,8.59388859 28.6178374,8.66578019 C28.3031384,8.86770181 27.9700818,9.0440967 27.6411776,9.22533646 C27.4479327,9.33181938 27.249716,9.34869828 27.1194656,9.14484913 C26.9867565,8.93704073 27.1301741,8.80982386 27.3082304,8.70896724 C27.665982,8.50631628 28.0208926,8.29897675 28.3821409,8.10221257 C28.6048889,7.98093456 28.825506,8.08898034 28.8357228,8.40025013 M18.3941989,9.27063338 C18.2535132,9.22135117 18.1636382,9.20275312 18.0878591,9.16102474 C17.7662213,8.9840047 17.4500471,8.79792007 17.1291742,8.61954555 C16.9331976,8.51061415 16.8558341,8.35448435 16.9682734,8.16569076 C17.0812045,7.97606365 17.2582227,7.99372397 17.4379181,8.09697698 C17.7947956,8.30207642 18.1613435,8.49316221 18.5069115,8.71409863 C18.5975514,8.77202868 18.6908684,8.93550392 18.6662279,9.01948164 C18.635796,9.12309932 18.4834183,9.19431368 18.3941989,9.27063338 M20.8995259,7.7386755 C20.8502449,7.79509478 20.7923315,7.92356194 20.7060078,7.94413961 C20.6054243,7.96810348 20.4244177,7.93319958 20.3748089,7.86245408 C20.1133246,7.49018063 19.8657176,7.10655039 19.6538421,6.70734363 C19.6070196,6.61919828 19.691595,6.42368439 19.7791207,6.33335103 C19.8242494,6.28677778 20.0720203,6.32230682 20.1200993,6.39013498 C20.3881399,6.7683473 20.6241096,7.16718939 20.8674003,7.56103032 C20.8887627,7.59556955 20.883627,7.64490385 20.8995259,7.7386755" id="Fill-25" fill="#F6E3D2"></path>
                    </g>
                </g>
            </g>
        </g>
    </g>
</svg>