<?xml version="1.0" encoding="UTF-8"?>
<svg width="17px" height="18px" viewBox="0 0 17 18" version="1.1" xmlns="http://www.w3.org/2000/svg" xmlns:xlink="http://www.w3.org/1999/xlink">
    <title>Icon</title>
    <defs>
        <path d="M19.3,4 L5.7,4 C4.765,4 4.0085,4.765 4.0085,5.7 L4,21 L7.4,17.6 L19.3,17.6 C20.235,17.6 21,16.835 21,15.9 L21,5.7 C21,4.765 20.235,4 19.3,4 Z M8.25,9.95 L16.75,9.95 C17.2175,9.95 17.6,10.3325 17.6,10.8 C17.6,11.2675 17.2175,11.65 16.75,11.65 L8.25,11.65 C7.7825,11.65 7.4,11.2675 7.4,10.8 C7.4,10.3325 7.7825,9.95 8.25,9.95 Z M13.35,14.2 L8.25,14.2 C7.7825,14.2 7.4,13.8175 7.4,13.35 C7.4,12.8825 7.7825,12.5 8.25,12.5 L13.35,12.5 C13.8175,12.5 14.2,12.8825 14.2,13.35 C14.2,13.8175 13.8175,14.2 13.35,14.2 Z M16.75,9.1 L8.25,9.1 C7.7825,9.1 7.4,8.7175 7.4,8.25 C7.4,7.7825 7.7825,7.4 8.25,7.4 L16.75,7.4 C17.2175,7.4 17.6,7.7825 17.6,8.25 C17.6,8.7175 17.2175,9.1 16.75,9.1 Z" id="path-1"></path>
    </defs>
    <g id="Screens" stroke="none" stroke-width="1" fill="none" fill-rule="evenodd">
        <g id="Posts" transform="translate(-339.000000, -327.000000)">
            <g id="Card-1" transform="translate(19.000000, 191.000000)">
                <g id="interactive-icons" transform="translate(250.000000, 131.000000)">
                    <g id="Icon" transform="translate(66.000000, 1.500000)">
                        <rect id="holder" x="0" y="0" width="24" height="24"></rect>
                        <mask id="mask-2" fill="white">
                            <use xlink:href="#path-1"></use>
                        </mask>
                        <use id="icon/communication/chat_24px" fill="#F0CFB2" fill-rule="nonzero" xlink:href="#path-1"></use>
                    </g>
                </g>
            </g>
        </g>
    </g>
</svg>