<?xml version="1.0" encoding="UTF-8"?>
<svg width="14px" height="14px" viewBox="0 0 14 14" version="1.1" xmlns="http://www.w3.org/2000/svg" xmlns:xlink="http://www.w3.org/1999/xlink">
    <title>icon/contact</title>
    <g id="Design" stroke="none" stroke-width="1" fill="none" fill-rule="evenodd" stroke-linecap="round" stroke-linejoin="round">
        <g id="My-Profile" transform="translate(-377.000000, -423.000000)">
            <g id="Other" transform="translate(-1.000000, 376.000000)">
                <g id="Contact" transform="translate(19.000000, 42.000000)">
                    <g id="icon/contact" transform="translate(354.000000, 0.000000)">
                        <polygon id="Background" points="0 0 24 0 24 24 0 24"></polygon>
                        <path d="M7.38673002,5.01749636 C8.25959624,5.02381306 8.31292476,5.06200038 8.60618722,5.81971721 C8.93565274,6.67103606 9.28588177,7.51412405 9.58047523,8.37932048 C9.65989124,8.61275125 9.64871088,8.95949978 9.54098906,9.17321478 C9.33264404,9.5867672 9.04426189,9.95993101 8.75437128,10.317016 C8.52561768,10.5986833 8.49216536,10.8427376 8.66341999,11.1746515 C9.74791434,13.2779211 11.4472394,14.5953358 13.4287354,15.5616951 C13.7050499,15.6965471 13.9141935,15.6114631 14.0922805,15.3762139 C14.4378955,14.919593 14.7990386,14.4749357 15.1196309,13.9985991 C15.3317027,13.6835298 15.5770493,13.6005513 15.882202,13.7549276 C16.8298701,14.2347097 17.772303,14.7266466 18.7139373,15.2200191 C19.0294717,15.3853061 19.0139434,15.7047779 18.9867911,16.0094151 C18.837986,17.6790337 17.6610318,18.9022722 16.0531017,18.9917588 C15.5159123,19.0216195 14.9550312,18.9707031 14.4330151,18.8329799 C11.3902729,18.0304719 9.0499408,16.0905752 7.14590874,13.4779499 C6.30551878,12.3247694 5.48420642,11.1547443 5.14577887,9.68955713 C4.78179623,8.11344485 5.09484615,6.7347773 6.13630501,5.543888 C6.51652579,5.10918421 6.95619765,4.94207879 7.38673002,5.01749636" id="Fill-6" fill="#F6E3D2"></path>
                    </g>
                </g>
            </g>
        </g>
    </g>
</svg>