<?xml version="1.0" encoding="UTF-8"?>
<svg width="24px" height="21px" viewBox="0 0 24 21" version="1.1" xmlns="http://www.w3.org/2000/svg" xmlns:xlink="http://www.w3.org/1999/xlink">
    <title>icon/group</title>
    <g id="🥇-Design" stroke="none" stroke-width="1" fill="none" fill-rule="evenodd">
        <g id="New-Message" transform="translate(-20.000000, -127.000000)">
            <g id="icon/group" transform="translate(20.000000, 125.000000)">
                <polygon id="Background" points="0 0 24 0 24 24 0 24"></polygon>
                <path d="M9.51644594,4.23915421 C11.2865929,4.23915421 12.7215802,5.6924767 12.7215802,7.48523208 C12.7215802,7.48523208 14.172959,7.48523208 14.172959,7.48523208 C14.172959,4.88065636 12.0881713,2.76923077 9.51644594,2.76923077 C9.51644594,2.76923077 9.51644594,4.23915421 9.51644594,4.23915421 Z M6.31132075,7.48523208 C6.31132075,5.6924767 7.74630806,4.23915421 9.51644594,4.23915421 C9.51644594,4.23915421 9.51644594,2.76923077 9.51644594,2.76923077 C6.94472968,2.76923077 4.85994194,4.88065636 4.85994194,7.48523208 C4.85994194,7.48523208 6.31132075,7.48523208 6.31132075,7.48523208 Z M9.51644594,10.7313191 C7.74630806,10.7313191 6.31132075,9.27799665 6.31132075,7.48523208 C6.31132075,7.48523208 4.85994194,7.48523208 4.85994194,7.48523208 C4.85994194,10.089817 6.94472968,12.2012426 9.51644594,12.2012426 C9.51644594,12.2012426 9.51644594,10.7313191 9.51644594,10.7313191 Z M12.7215802,7.48523208 C12.7215802,9.27799665 11.2865929,10.7313191 9.51644594,10.7313191 C9.51644594,10.7313191 9.51644594,12.2012426 9.51644594,12.2012426 C12.0881713,12.2012426 14.172959,10.089817 14.172959,7.48523208 C14.172959,7.48523208 12.7215802,7.48523208 12.7215802,7.48523208 Z M20.5076197,14.8643121 C21.5065947,15.125545 22.3916092,15.7153886 23.023721,16.5412283 C23.6031567,17.298248 23.9399913,18.2142694 23.9927004,19.166532 L24,19.4270463 L24,21.4181219 L22.5486212,21.4181219 L22.5486212,19.4275975 C22.5480951,18.7089152 22.311729,18.010233 21.8766419,17.4417953 L21.7252965,17.2584135 C21.3052151,16.7859293 20.7559829,16.4473859 20.144775,16.2875563 L20.0510858,16.2561361 C19.7201351,16.119329 19.531699,15.7524674 19.6235486,15.3921983 C19.7237482,14.9991775 20.1195573,14.7628322 20.5076197,14.8643121 Z M22.5486212,21.4181219 C22.5486212,21.8240229 22.8735214,22.1530836 23.2743106,22.1530836 C23.6750998,22.1530836 24,21.8240229 24,21.4181219 C24,21.4181219 22.5486212,21.4181219 22.5486212,21.4181219 Z M2.37445573,19.42836 L2.37445573,21.4188844 L0.923076923,21.4188844 L0.923076923,19.42836 L0.92958619,19.1789697 C0.990190131,18.0190652 1.471888,16.9191095 2.28693759,16.0936458 C3.16019594,15.2092204 4.34460269,14.7123587 5.57958091,14.7123587 L13.4412192,14.7123587 L13.4412192,16.1822822 L5.57958091,16.1822822 L5.36789849,16.1893636 C4.59514953,16.241134 3.86420613,16.5750082 3.31321662,17.1330378 C2.71213716,17.7417974 2.37445573,18.5674534 2.37445573,19.42836 Z M15.7075472,17.1330378 L15.552926,16.9864491 C14.9703828,16.4696539 14.2204357,16.1822822 13.4412192,16.1822822 L13.4412192,14.7123587 C14.6761611,14.7123587 15.8605769,15.2092204 16.7338534,16.0936458 C17.6071299,16.9780712 18.0976959,18.1776022 18.0976959,19.42836 L18.0976959,21.4188844 L16.6463171,21.4188844 L16.6463171,19.42836 C16.6463171,18.5674534 16.3086901,17.7417974 15.7075472,17.1330378 Z M0.923076923,21.4188844 C0.923076923,21.8247946 1.24797714,22.1538462 1.64876633,22.1538462 C2.04955552,22.1538462 2.37445573,21.8247946 2.37445573,21.4188844 C2.37445573,21.4188844 0.923076923,21.4188844 0.923076923,21.4188844 Z M13.4412192,15.4473205 L13.4412192,14.7123587 L13.4412192,15.4473205 Z M16.6463171,21.4188844 C16.6463171,21.8247946 16.9712446,22.1538462 17.3720065,22.1538462 C17.7728592,22.1538462 18.0976959,21.8247946 18.0976959,21.4188844 C18.0976959,21.4188844 16.6463171,21.4188844 16.6463171,21.4188844 Z M17.9462264,5.49903478 L17.8101667,5.33318753 C17.3868434,4.85072523 16.8298231,4.50570645 16.2093342,4.34480496 L16.115583,4.31356848 C15.7843617,4.17744269 15.5951946,3.81096704 15.6863208,3.45051272 C15.7857311,3.05728983 16.1810686,2.82013606 16.5693306,2.92081662 C17.5709634,3.1805521 18.4587536,3.77052424 19.092734,4.59772366 C19.7267235,5.42492308 20.0708454,6.44229384 20.0708454,7.48944892 C20.0708454,8.53660401 19.7267235,9.55397477 19.092734,10.381165 L18.9290322,10.5829688 C18.309998,11.3043998 17.487494,11.8199812 16.5693306,12.058072 L16.472293,12.0763092 C16.1172341,12.1181432 15.7774469,11.8888303 15.6863208,11.5283759 C15.5869104,11.135153 15.8210722,10.7347643 16.2093342,10.6340837 L16.4137168,10.5736947 C17.0192346,10.3724545 17.5534806,9.99228297 17.9462264,9.47985388 L18.0842443,9.285366 C18.432314,8.75461203 18.6194666,8.13013139 18.6194666,7.48944892 C18.6194666,6.76868115 18.3826016,6.06840962 17.9462264,5.49903478 Z" id="group" fill="#FFFFFF"></path>
            </g>
        </g>
    </g>
</svg>