<?xml version="1.0" encoding="UTF-8"?>
<svg width="17px" height="17px" viewBox="0 0 17 17" version="1.1" xmlns="http://www.w3.org/2000/svg" xmlns:xlink="http://www.w3.org/1999/xlink">
    <title>icon/delete@3x</title>
    <g id="Design" stroke="none" stroke-width="1" fill="none" fill-rule="evenodd">
        <g id="My-Journal" transform="translate(-354.000000, -430.000000)" fill="#BB4343">
            <g id="Cards-opt.1" transform="translate(20.000000, 100.000000)">
                <g id="Card-5" transform="translate(0.000000, 316.000000)">
                    <g id="icon/delete" transform="translate(334.680002, 14.000000)">
                        <path d="M11.3601666,1.82153896 C11.3607293,1.3383326 11.1364681,0.875078298 10.7369154,0.533210233 C10.3370746,0.191600646 9.79486778,-0.000239341809 9.22926463,2.24104232e-07 L6.39635066,2.24104232e-07 C5.83105725,0.000481442849 5.28913136,0.192560708 4.88927615,0.533930279 C4.48971628,0.875539866 4.26489408,1.33853569 4.26433222,1.8215205 L2.13201124,1.8215205 C1.56671783,1.82200133 1.02479194,2.01408053 0.625224863,2.35569012 C0.225384066,2.69705969 0.00056185743,3.16004936 0,3.64303417 C0.000281360913,3.96517173 0.150253643,4.27384383 0.416725334,4.50148919 C0.683189822,4.72914685 1.04447856,4.85703813 1.42122557,4.85752431 L1.45245836,4.85752431 L1.99917446,15.261268 C2.02281064,15.7300489 2.25775853,16.1728342 2.65450911,16.4969165 C3.05153342,16.8212142 3.57970102,17.001755 4.12895267,17.0010416 L11.5065729,17.0010416 C12.0558246,17.0017561 12.5839706,16.8212142 12.9810165,16.4969165 C13.3780408,16.1728588 13.6127099,15.7300365 13.6366321,15.261268 L14.1830672,4.85752431 L14.2140191,4.85752431 C14.5910686,4.85704348 14.9523574,4.72915301 15.2188075,4.50148919 C15.485272,4.27383152 15.6349637,3.96515943 15.6355328,3.64303417 C15.6349701,3.16006783 15.4101487,2.69706584 15.0103079,2.35569012 C14.6104671,2.01408053 14.0685484,1.82200053 13.5032334,1.8215205 L11.3601666,1.82153896 Z M9.22957438,1.21428773 C9.41781779,1.21428773 9.59874309,1.27823645 9.7321194,1.39218221 C9.86549571,1.50589411 9.940338,1.66047017 9.94005942,1.82153896 L5.6856438,1.82153896 C5.68620652,1.4864221 6.00416654,1.21476776 6.39640785,1.21428773 L9.22957438,1.21428773 Z M12.216711,15.2071846 C12.2001099,15.5319623 11.8869363,15.787751 11.5065084,15.7872723 L4.12888813,15.7872723 C3.74846743,15.7877518 3.43528954,15.5319685 3.41924779,15.2071846 L2.87534098,4.85759816 L12.7597098,4.85759816 L12.216711,15.2071846 Z M1.42112473,3.64336649 C1.42168752,3.30824963 1.73964747,3.0365953 2.13188878,3.03611527 L13.5030188,3.03611527 C13.895541,3.0365961 14.2135019,3.30824963 14.2137828,3.64336649 L1.42112473,3.64336649 Z M8.08555137,13.9830525 C8.19315098,13.8651309 8.25352904,13.7048324 8.25352904,13.5378008 L8.25352904,7.24124732 C8.25352904,6.89347539 7.99679157,6.61151539 7.68012932,6.61151539 C7.36346707,6.61151539 7.10695624,6.89347539 7.10695624,7.24124732 L7.10695624,13.5378008 C7.10695624,13.7048324 7.1673401,13.8651309 7.27470727,13.9830525 C7.38230689,14.101223 7.52803939,14.1675327 7.68012932,14.1675327 C7.83221925,14.1675327 7.97817839,14.1012166 8.08555137,13.9830525 Z M10.9285598,13.9833014 C11.0359327,13.8651309 11.0963107,13.7048324 11.0963107,13.5378008 L11.0963107,7.24124732 C11.0963107,6.89347539 10.8395734,6.61151539 10.5229113,6.61151539 C10.2062493,6.61151539 9.94973732,6.89347539 9.94973732,7.24124732 L9.94973732,13.5378008 C9.9495116,13.7048324 10.0101224,13.8651309 10.1174895,13.9833014 C10.2250891,14.101223 10.3708215,14.1675327 10.5229113,14.1675327 C10.6750012,14.1675327 10.8209603,14.1012166 10.9285598,13.9833014 Z M5.24276887,13.9830525 C5.35036849,13.8651309 5.41074654,13.7048324 5.41074654,13.5378008 L5.41074654,7.24124732 C5.41074654,6.89347539 5.15400907,6.61151539 4.83734682,6.61151539 C4.52068458,6.61151539 4.26417375,6.89347539 4.26417375,7.24124732 L4.26417375,13.5378008 C4.26417375,13.7048324 4.32455761,13.8651309 4.43192477,13.9830525 C4.53952439,14.101223 4.6852569,14.1675327 4.83734682,14.1675327 C4.98943675,14.1675327 5.1353959,14.1012166 5.24276887,13.9830525 Z" id="Fill-1"></path>
                    </g>
                </g>
            </g>
        </g>
    </g>
</svg>