<?xml version="1.0" encoding="UTF-8"?>
<svg width="25px" height="25px" viewBox="0 0 25 25" version="1.1" xmlns="http://www.w3.org/2000/svg" xmlns:xlink="http://www.w3.org/1999/xlink">
    <title>icon/delete@3x</title>
    <g id="Design" stroke="none" stroke-width="1" fill="none" fill-rule="evenodd">
        <g id="Chat-Settings" transform="translate(-350.000000, -715.000000)" fill="#131313">
            <g id="Menu" transform="translate(20.000000, 381.000000)">
                <g id="Option-6" transform="translate(0.000000, 318.000000)">
                    <g id="icon/delete" transform="translate(330.000000, 16.000000)">
                        <path d="M1.62715129,23.2979128 C1.73298698,23.2769524 1.79236944,23.267648 1.8504232,23.2532824 C3.30805296,22.8923543 4.76644928,22.5344424 6.22234153,22.1667149 C6.53412497,22.0879855 6.81110682,22.1241294 7.09396559,22.2759135 C9.4674241,23.5495912 11.979629,23.9461009 14.634822,23.454298 C20.835536,22.3058205 24.907527,16.0469376 23.4187751,9.94551351 C21.9829155,4.06059518 16.3371872,0.437050262 10.335011,1.54805462 C5.25372271,2.48861501 1.38359124,7.0304307 1.27576251,12.177389 C1.23349978,14.1936277 1.68316091,16.0915168 2.65857652,17.8613429 C2.81791774,18.1504433 2.85956722,18.4362718 2.77054464,18.7536432 C2.66067177,19.145194 2.56848076,19.5417038 2.46949296,19.9362708 C2.19225559,21.0417539 1.91542705,22.1473393 1.62715129,23.2979128 L1.62715129,23.2979128 Z M11.6770954,0 L13.3090908,0 C13.8205874,0.07249237 14.3364278,0.122541757 14.8429162,0.220902349 C21.6574362,1.54468051 26.0682956,8.05708216 24.7750663,14.875966 C23.2451248,22.9427615 14.3411293,27.3579456 6.96963038,23.7000972 C6.77114376,23.6016344 6.59989538,23.5933013 6.39307886,23.6457024 C4.6494219,24.0877115 2.90402741,24.5230747 1.15745753,24.9534279 C1.01344741,24.9889072 0.850426728,25.0032728 0.706825436,24.9744906 C0.197628542,24.8725514 -0.0956042731,24.3892348 0.0327170235,23.872126 C0.472310729,22.1010218 0.920540953,20.3320649 1.35456436,18.5595804 C1.38916154,18.4181232 1.38553318,18.2341316 1.32354444,18.1069888 C0.021883047,15.4364271 -0.323168882,12.6534461 0.303873057,9.74776987 C1.34577453,4.91992117 5.42543101,1.00763372 10.2695472,0.201935728 C10.7369924,0.124177692 11.2078104,0.0668177205 11.6770954,0 L11.6770954,0 Z M16.1721746,6.50245828 C16.1726784,6.10439746 15.9718695,5.72277295 15.6141002,5.44114528 C15.256073,5.15973053 14.7705677,5.00169457 14.2641128,5.00189192 L11.7274523,5.00189192 C11.2212747,5.00228834 10.736021,5.16052142 10.3779809,5.44173844 C10.0202052,5.72315319 9.81889389,6.10456476 9.81839079,6.50244307 L7.90905839,6.50244307 C7.40288084,6.50283917 6.91762712,6.6610722 6.55984499,6.94248694 C6.20181775,7.22370396 6.00050644,7.60511047 6.00000334,8.00298878 C6.00025528,8.26836266 6.13454413,8.5226438 6.3731494,8.7101759 C6.61174823,8.89771813 6.93525501,9.00307375 7.27260351,9.00347426 L7.30057011,9.00347426 L7.79011308,17.5739798 C7.81127751,17.960157 8.0216556,18.3249194 8.37691578,18.5918953 C8.73242106,18.8590487 9.20535525,19.0077765 9.69716863,19.0071888 L16.3032704,19.0071888 C16.7950838,19.0077774 17.2679986,18.8590487 17.6235232,18.5918953 C17.9790285,18.3249396 18.189157,17.9601469 18.2105775,17.5739798 L18.6998689,9.00347426 L18.727584,9.00347426 C19.0652034,9.00307816 19.3887101,8.8977232 19.6272961,8.7101759 C19.8658949,8.52263366 19.9999326,8.26835252 20.0004421,8.00298878 C19.9999383,7.60512568 19.7986277,7.22370903 19.4406005,6.94248694 C19.0825733,6.6610722 18.597326,6.50283851 18.0911291,6.50244307 L16.1721746,6.50245828 Z M14.2643902,6.00221047 C14.4329479,6.00221047 14.5949529,6.05489081 14.7143813,6.14875826 C14.8338097,6.24243304 14.9008253,6.36977134 14.9005759,6.50245828 L11.091068,6.50245828 C11.0915718,6.22639218 11.376281,6.00260591 11.7275035,6.00221047 L14.2643902,6.00221047 Z M16.9391454,17.5294264 C16.9242803,17.7969752 16.6438571,18.0076915 16.3032126,18.0072972 L9.69711084,18.0072972 C9.35647283,18.0076921 9.07604568,17.7969803 9.06168151,17.5294264 L8.57465404,9.0035351 L17.4253598,9.0035351 L16.9391454,17.5294264 Z M7.27251321,8.00326255 C7.27301715,7.72719645 7.55772626,7.50341018 7.90894874,7.50301474 L18.0909369,7.50301474 C18.4424109,7.50341084 18.7271209,7.72719645 18.7273724,8.00326255 L7.27251321,8.00326255 Z M13.240004,16.520998 C13.3363513,16.4238553 13.3904153,16.2918029 13.3904153,16.1542038 L13.3904153,10.9671627 C13.3904153,10.6806715 13.1605263,10.4483955 12.8769791,10.4483955 C12.593432,10.4483955 12.3637459,10.6806715 12.3637459,10.9671627 L12.3637459,16.1542038 C12.3637459,16.2918029 12.4178151,16.4238553 12.5139543,16.520998 C12.6103016,16.6183457 12.7407941,16.672971 12.8769791,16.672971 C13.0131642,16.672971 13.1438596,16.6183404 13.240004,16.520998 Z M15.7857033,16.521203 C15.8818476,16.4238553 15.9359116,16.2918029 15.9359116,16.1542038 L15.9359116,10.9671627 C15.9359116,10.6806715 15.7060227,10.4483955 15.4224757,10.4483955 C15.1389288,10.4483955 14.9092417,10.6806715 14.9092417,10.9671627 L14.9092417,16.1542038 C14.9090396,16.2918029 14.963312,16.4238553 15.0594511,16.521203 C15.1557984,16.6183457 15.2862908,16.672971 15.4224757,16.672971 C15.5586607,16.672971 15.689356,16.6183404 15.7857033,16.521203 Z M10.6945069,16.520998 C10.7908543,16.4238553 10.8449182,16.2918029 10.8449182,16.1542038 L10.8449182,10.9671627 C10.8449182,10.6806715 10.6150292,10.4483955 10.3314821,10.4483955 C10.047935,10.4483955 9.81824889,10.6806715 9.81824889,10.9671627 L9.81824889,16.1542038 C9.81824889,16.2918029 9.87231808,16.4238553 9.96845727,16.520998 C10.0648046,16.6183457 10.1952971,16.672971 10.3314821,16.672971 C10.4676671,16.672971 10.5983625,16.6183404 10.6945069,16.520998 Z" id="Fill-1"></path>
                    </g>
                </g>
            </g>
        </g>
    </g>
</svg>