<?xml version="1.0" encoding="UTF-8"?>
<svg width="22px" height="18px" viewBox="0 0 22 18" version="1.1" xmlns="http://www.w3.org/2000/svg" xmlns:xlink="http://www.w3.org/1999/xlink">
    <title>icon/delete</title>
    <g id="Design" stroke="none" stroke-width="1" fill="none" fill-rule="evenodd" stroke-linecap="round" stroke-linejoin="round">
        <g id="My-Profile" transform="translate(-373.000000, -740.000000)">
            <g id="Account" transform="translate(0.000000, 640.000000)">
                <g id="Deactive" transform="translate(18.000000, 97.000000)">
                    <g id="icon/delete" transform="translate(354.000000, 0.000000)">
                        <polygon id="Background" points="0 0 24 0 24 24 0 24"></polygon>
                        <path d="M6.25506058,8.28054288 C6.24440516,10.019747 7.64592109,11.4499942 9.37019184,11.4595249 C11.1156254,11.4691368 12.5328108,10.0807582 12.5466791,8.34749641 C12.5609978,6.55617191 11.1766372,5.12978045 9.4133729,5.11901631 C7.67937629,5.10850592 6.26597318,6.52333021 6.25506058,8.28054288 M5.89017635,12.2330239 C3.26414632,9.87645015 3.87453474,6.0697155 5.93740986,4.29912119 C8.06967186,2.469058 11.2121186,2.58228023 13.1564822,4.57682412 C15.1179561,6.58892289 15.2823053,10.0505021 12.9061311,12.2244506 C12.9592632,12.2562037 13.0067668,12.2882742 13.0574224,12.3141756 C15.6326168,13.6311098 17.1789401,15.7264016 17.7013454,18.582768 C17.7809985,19.0181928 17.7938312,19.4689497 17.8046828,19.9134468 C17.8196318,20.5241029 17.365938,20.9875157 16.776172,20.9997633 C16.1855055,21.0120563 15.7056959,20.5441073 15.7018686,19.9265109 C15.6933134,18.5618564 15.3154003,17.3111953 14.5038755,16.2230189 C13.0902922,14.3274538 11.191271,13.4346493 8.83833082,13.626483 C5.96793829,13.8605028 3.66160121,16.0358122 3.18404297,18.9187605 C3.1262731,19.2674994 3.1252825,19.625719 3.09862641,19.9796292 C3.05612075,20.5442434 2.67388504,20.94601 2.13297356,20.9939117 C1.62781365,21.0385927 1.12215844,20.7158459 1.04020898,20.2169604 C0.980007641,19.8506212 0.993695903,19.4607847 1.03993881,19.0896825 C1.42897363,15.9664545 3.02851909,13.6976098 5.81660194,12.2788844 C5.84109673,12.26641 5.86347523,12.2497623 5.89017635,12.2330239 M23,11.8929293 C22.9836035,11.9401631 22.9623271,11.9861175 22.9516401,12.0347329 C22.8520411,12.4881359 22.5912588,12.7955902 22.1725137,12.9366774 C21.7409833,13.0821655 21.3521034,12.9732157 21.0251006,12.648311 C20.7197159,12.3448483 20.4239934,12.0308437 20.1212438,11.7187837 C19.8268876,12.0215811 19.5389242,12.3198753 19.248716,12.6157131 C18.9049751,12.9662049 18.5026754,13.0935262 18.0422559,12.925982 C17.5842276,12.7593589 17.326422,12.4068202 17.2699615,11.9052111 C17.227311,11.5267782 17.3551647,11.2020782 17.6077,10.9309064 C17.8961514,10.6210469 18.1855301,10.3121597 18.4777391,9.99938324 C18.187482,9.68819321 17.8963466,9.3815065 17.6111647,9.06883242 C17.2785501,8.70416539 17.1726561,8.27594006 17.3373042,7.79756407 C17.5023427,7.31811341 17.8462788,7.05666466 18.3251931,7.008868 C18.6855744,6.97289257 18.9926671,7.11310975 19.2491552,7.38059706 C19.5361914,7.67991469 19.8262045,7.97605952 20.1196334,8.27839642 C20.377195,8.01433779 20.6417349,7.76358443 20.883388,7.49051914 C21.2259577,7.10338666 21.628599,6.90247693 22.126789,7.04683922 C22.6101928,7.18685171 22.889958,7.54123273 22.9682318,8.0650002 C22.9728189,8.09616526 22.9891178,8.1253857 23,8.15552728 L23,8.30915209 C22.857165,9.08674337 22.1767593,9.43283418 21.7590878,9.99810389 C22.1735873,10.5653694 22.859605,10.9081339 23,11.6881303 L23,11.8929293 Z" id="delete" fill="#F6E3D2"></path>
                    </g>
                </g>
            </g>
        </g>
    </g>
</svg>