<?xml version="1.0" encoding="UTF-8"?><svg version="1.1" width="17px" height="17px" viewBox="0 0 17.0 17.0" xmlns="http://www.w3.org/2000/svg" xmlns:xlink="http://www.w3.org/1999/xlink"><defs><clipPath id="i0"><path d="M414,0 L414,896 L0,896 L0,0 L414,0 Z"></path></clipPath><clipPath id="i1"><path d="M10.0318089,2.24104221e-07 C10.6465949,-0.0002393418 11.2359501,0.191600638 11.6705596,0.533210212 C12.104856,0.875078263 12.3486181,1.33833255 12.3480065,1.82153889 L14.6774269,1.82152042 C15.2918997,1.82200045 15.8809417,2.01408045 16.3155513,2.35569002 C16.7501608,2.69706574 16.9945318,3.1600677 16.9951435,3.64303402 C16.9945249,3.96515927 16.8318165,4.27383135 16.5421812,4.50148901 C16.2525615,4.72915282 15.8598564,4.85704329 15.45002,4.85752412 L15.4163766,4.85752412 L14.8224254,15.2612674 C14.796423,15.7300359 14.5413479,16.1728581 14.1097998,16.4969158 C13.6782282,16.8212135 13.1041565,17.0017555 12.5071438,17.0010409 L4.4879918,17.0010409 C3.89097916,17.0017543 3.31688398,16.8212135 2.88533584,16.4969158 C2.45408523,16.1728335 2.19870711,15.7300482 2.1730156,15.2612674 L1.57875901,4.85752412 L1.54481032,4.85752412 C1.13530272,4.85703793 0.742597594,4.72914666 0.452962296,4.50148901 C0.163319168,4.27384366 0.000305827063,3.96517158 0,3.64303402 C0.000610714566,3.16004924 0.244982667,2.69705958 0.679592208,2.35569002 C1.11390422,2.01408045 1.70295408,1.82200125 2.3174034,1.82152042 L4.63514347,1.82152042 C4.63575419,1.33853564 4.88012614,0.875539831 5.31443032,0.533930258 C5.74905552,0.1925607 6.33810538,0.00048144283 6.9525547,2.24104221e-07 Z M13.869249,4.85759797 L3.12537047,4.85759797 L3.71657349,15.207184 C3.73401017,15.5319678 4.07442091,15.7877511 4.48792165,15.7872717 L12.5070737,15.7872717 C12.9205822,15.7877504 13.2609883,15.5319617 13.279033,15.207184 L13.869249,4.85759797 Z M8.34796622,6.61151513 C8.6921643,6.61151513 8.97122675,6.89347511 8.97122675,7.24124703 L8.97122675,13.5378002 C8.97122675,13.7048319 8.90559843,13.8651304 8.78864234,13.983052 C8.67193258,14.101216 8.51328135,14.1675322 8.34796622,14.1675322 C8.18265109,14.1675322 8.0242462,14.1012224 7.9072901,13.983052 C7.79058666,13.8651304 7.72495204,13.7048319 7.72495204,13.5378002 L7.72495204,7.24124703 C7.72495204,6.89347511 8.00376814,6.61151513 8.34796622,6.61151513 Z M11.4379465,6.61151513 C11.7821444,6.61151513 12.0612067,6.89347511 12.0612067,7.24124703 L12.0612067,13.5378002 C12.0612067,13.7048319 11.9955784,13.8651304 11.8788687,13.9833009 C11.7619127,14.101216 11.6032616,14.1675322 11.4379465,14.1675322 C11.2726315,14.1675322 11.1142267,14.1012224 10.9972706,13.9833009 C10.8805673,13.8651304 10.814686,13.7048319 10.8149313,13.5378002 L10.8149313,7.24124703 C10.8149313,6.89347511 11.0937486,6.61151513 11.4379465,6.61151513 Z M5.25798541,6.61151513 C5.60218348,6.61151513 5.88124593,6.89347511 5.88124593,7.24124703 L5.88124593,13.5378002 C5.88124593,13.7048319 5.81561762,13.8651304 5.69866152,13.983052 C5.58195177,14.101216 5.42330054,14.1675322 5.25798541,14.1675322 C5.09267028,14.1675322 4.93426538,14.1012224 4.81730929,13.983052 C4.70060585,13.8651304 4.63497122,13.7048319 4.63497122,13.5378002 L4.63497122,7.24124703 C4.63497122,6.89347511 4.91378733,6.61151513 5.25798541,6.61151513 Z M14.6771936,3.03611514 L2.31727029,3.03611514 C1.89092106,3.03659518 1.54531244,3.3082495 1.54470071,3.64336635 L15.4497631,3.64336635 C15.4494578,3.3082495 15.1038481,3.03659598 14.6771936,3.03611514 Z M10.0321455,1.21428768 L6.95261687,1.21428768 C6.52626764,1.21476771 6.18065894,1.48642204 6.18004729,1.82153889 L10.8044119,1.82153889 C10.8047147,1.66047011 10.7233643,1.50589405 10.5783901,1.39218215 C10.4334159,1.27823639 10.2367579,1.21428768 10.0321455,1.21428768 Z"></path></clipPath></defs><g transform="translate(-353.0 -771.0)"><g clip-path="url(#i0)"><g transform="translate(20.0 692.0)"><g transform="translate(0.0 59.0)"><g transform="translate(329.0000000000006 16.0)"><g transform="translate(4.000002226931191 4.0)"><g clip-path="url(#i1)"><polygon points="0,-3.88578059e-15 16.9951435,-3.88578059e-15 16.9951435,17.001043 0,17.001043 0,-3.88578059e-15" stroke="none" fill="#131313"></polygon></g></g></g></g></g></g></g></svg>