<?xml version="1.0" encoding="UTF-8"?>
<svg width="40px" height="40px" viewBox="0 0 40 40" version="1.1" xmlns="http://www.w3.org/2000/svg" xmlns:xlink="http://www.w3.org/1999/xlink">
    <title>icon</title>
    <g id="Symbols" stroke="none" stroke-width="1" fill="none" fill-rule="evenodd">
        <g id="icon/depression" transform="translate(0.000000, 0.000042)" fill="#FFFFFF">
            <path d="M26.9541,14.2637727 C24.5055236,14.2399031 22.4451744,12.5684934 22.4495773,10.5936068 C22.4507225,10.0845064 22.8770752,9.67296283 23.4388593,9.63852404 C24.0015681,9.60402587 24.5245153,9.95328273 24.5939381,10.4512202 C24.6595199,10.9210722 24.7760307,11.3643232 25.1555088,11.7349559 C25.7971718,12.3616825 26.8132627,12.5944413 27.7294161,12.3205341 C28.6453561,12.0468051 29.2511696,11.3370097 29.2769898,10.5073317 C29.2972618,9.85762602 29.847594,9.44988258 30.5627342,9.55462401 C31.0874596,9.63145815 31.4377034,10.0028033 31.4488708,10.4942093 C31.4885612,12.2371685 29.8511505,13.8930213 27.7979854,14.1804665 C27.5189427,14.2194773 27.2354899,14.2365779 26.9541,14.2637727 M1.22748324,19.9879136 C1.22535591,30.2814301 9.64099599,38.7634858 19.8647532,38.7720797 C30.3135182,38.7808877 38.7662416,30.4021789 38.7724762,20.0300123 C38.7786281,9.71400269 30.363216,1.23278283 20.1160537,1.22784127 C9.67579963,1.22290407 1.22968736,9.61149155 1.22748324,19.9879136 M19.5683594,0 L20.4316694,0 C20.6445472,0.0235971393 20.857497,0.0462590261 21.070159,0.0710072453 C21.9729654,0.176043292 22.8866352,0.224892248 23.7764919,0.396978703 C27.534768,1.12374182 30.8331876,2.79165668 33.6168587,5.41892476 C37.2403865,8.83878334 39.3365031,13.0356209 39.8589495,18.0029626 C39.9113237,18.5002291 39.9532662,18.9985748 40.0000288,19.4964169 L40.0000288,20.5036119 C39.9767914,20.691094 39.9507482,20.8782884 39.9306762,21.0662022 C39.8494531,21.8275697 39.8169351,22.5974983 39.6826185,23.3492254 C38.8148481,28.2054879 36.4926162,32.2357066 32.6975775,35.3872916 C29.5852011,37.9718259 25.9987957,39.4659996 21.9644762,39.8623308 C21.4777133,39.9101726 20.9905906,39.9542014 20.5036119,40.0000288 L19.4964169,40.0000288 C19.3916686,39.9806762 19.2876398,39.9558561 19.1821001,39.9429784 C18.07879,39.8078704 16.9571345,39.7591653 15.8749754,39.5263594 C11.1708713,38.5141284 7.30986137,36.1039109 4.31935563,32.334124 C2.053095,29.4771435 0.680360202,26.2279325 0.214100873,22.6059155 C0.121151166,21.8839726 0.0702878204,21.156562 0,20.4316694 L0,19.5683594 C0.0192086469,19.4515967 0.0446043486,19.3354815 0.0564029183,19.2179994 C0.142733916,18.3610923 0.169856237,17.4938975 0.320072173,16.6485012 C1.18273466,11.7924545 3.50870756,7.76540127 7.30237935,4.61446375 C10.4147557,2.02942592 14.0018086,0.537626286 18.034977,0.138849021 C18.5456249,0.0883453873 19.0572799,0.0460431986 19.5683594,0 M19.9996691,24.1519382 C16.4382277,24.2007872 13.3327578,25.4004283 10.7256336,27.8461136 C10.3571441,28.1917973 9.99253956,28.5228766 9.43685571,28.3859701 C9.02311441,28.2840995 8.74635162,28.0229482 8.62865369,27.6026601 C8.5096608,27.1779836 8.63145945,26.8170481 8.93217909,26.5195658 C10.4495903,25.0183417 12.1944836,23.8627294 14.1813915,23.0740957 C16.2116088,22.2682678 18.3196679,21.8786273 20.4988061,21.9647424 C24.5818306,22.1259656 28.1009699,23.6353911 31.0363677,26.485609 C31.5128428,26.9481992 31.5397493,27.6125163 31.1191015,28.0634518 C30.6865832,28.5271212 30.0118345,28.5469054 29.5185248,28.0671209 C28.0806821,26.6688465 26.4365082,25.6058961 24.5431975,24.9345287 C23.0743475,24.4135931 21.5625479,24.1452476 19.9996691,24.1519382 M13.3550355,14.2648301 C10.9204238,14.2376912 8.86646016,12.5804383 8.85321285,10.6156906 C8.84953931,10.0751104 9.28315387,9.66363275 9.8880387,9.63346524 C10.4449337,9.60567314 10.9206371,9.96281361 11.0186074,10.478571 C11.0609806,10.701858 11.0768351,10.9340528 11.1637855,11.1452847 C11.5329159,12.0422334 12.6002092,12.5535963 13.7559459,12.4070939 C14.810513,12.2734186 15.6463177,11.4588961 15.6766757,10.5354023 C15.693952,10.011331 16.0008735,9.65217147 16.5099209,9.56030311 C17.2399347,9.42864691 17.8344395,9.8413716 17.8522135,10.491992 C17.8999189,12.242004 16.2334996,13.9122029 14.1638948,14.1845418 C13.8958629,14.2198164 13.6247738,14.2384632 13.3550355,14.2648301" id="icon"></path>
        </g>
    </g>
</svg>