<?xml version="1.0" encoding="UTF-8"?>
<svg width="21px" height="18px" viewBox="0 0 21 18" version="1.1" xmlns="http://www.w3.org/2000/svg" xmlns:xlink="http://www.w3.org/1999/xlink">
    <title>icon/edit</title>
    <g id="Design" stroke="none" stroke-width="1" fill="none" fill-rule="evenodd" stroke-linecap="round" stroke-linejoin="round">
        <g id="My-Profile" transform="translate(-369.000000, -47.000000)">
            <g id="Top-Bar" transform="translate(0.000000, 30.000000)">
                <g id="edit" transform="translate(333.000000, 14.000000)">
                    <g id="icon/edit" transform="translate(34.000000, 0.000000)">
                        <rect id="Rectangle" x="0" y="0" width="24" height="24"></rect>
                        <path d="M17.8000189,3 L18.0291045,3.00866152 C18.3335269,3.03171639 18.6329189,3.10062581 18.9161189,3.21334839 C19.2701189,3.35425161 19.5921189,3.56092258 19.8637189,3.82182581 C20.1352189,4.08274839 20.3509189,4.39280323 20.4982189,4.73442581 C20.6454189,5.07605806 20.7213189,5.44242581 20.7213189,5.81253871 C20.7213189,6.18265161 20.6454189,6.54900968 20.4982189,6.89065161 L20.4017317,7.09169644 C20.2624069,7.35433045 20.0809189,7.59451161 19.8637189,7.80324194 C19.8637189,7.80324194 19.5815362,7.52822901 19.29952,7.25337834 L19.8637189,7.80324194 L7.3636889,19.8143226 C7.2611589,19.9128387 7.1329789,19.9826129 6.9927489,20.0162903 L2.9927589,20.9771613 L2.87522744,20.9965531 C2.63949339,21.0181284 2.40342033,20.9374424 2.2333889,20.7722903 C2.0350089,20.5797097 1.9556189,20.3005161 2.0242289,20.0368065 C2.0242289,20.0368065 2.17954852,20.0746458 2.49018777,20.1503246 L2.0242289,20.0368065 L3.0242289,16.1932258 L3.05784233,16.0932732 C3.09829827,15.9959879 3.1589114,15.9073306 3.2363489,15.8329355 L15.7363189,3.82182581 L15.8905448,3.68394052 C16.4198536,3.24379899 17.0972916,3 17.8000189,3 Z M21.8000189,17.7771613 C22.2418489,17.7771613 22.6000189,18.4935013 22.6000189,19.3771613 C22.6000189,20.2608213 22.2418489,20.9771613 21.8000189,20.9771613 L12.8000189,20.9771613 L12.7182232,20.9689007 C12.3148167,20.8869652 12.0000189,20.2055925 12.0000189,19.3771613 C12.0000189,18.4935013 12.3581889,17.7771613 12.8000189,17.7771613 L21.8000189,17.7771613 Z M17.8000189,4.5483871 C17.4980475,4.5483871 17.2075373,4.64721527 16.9749629,4.8251324 L16.8637189,4.92059032 L4.521,16.779 L3.901,19.163 L6.393,18.565 L18.7363189,6.7044871 C18.8588189,6.58684839 18.9556189,6.44748387 19.0215189,6.29450323 L19.0649564,6.17789879 C19.1023064,6.05956331 19.1213189,5.93647016 19.1213189,5.81253871 C19.1213189,5.64729677 19.0875189,5.48353548 19.0215189,5.33057419 L18.9663814,5.21851845 C18.9056126,5.10926915 18.8281939,5.00881935 18.7363189,4.92059032 L18.6402798,4.83694733 C18.5401314,4.75798548 18.4280439,4.69333065 18.3075189,4.64535484 L18.1849376,4.60321724 C18.0604564,4.5669496 17.9307439,4.5483871 17.8000189,4.5483871 Z" id="edit" fill="#F6E3D2"></path>
                    </g>
                </g>
            </g>
        </g>
    </g>
</svg>