<?xml version="1.0" encoding="UTF-8"?><svg version="1.1" width="21px" height="18px" viewBox="0 0 21.0 18.0" xmlns="http://www.w3.org/2000/svg" xmlns:xlink="http://www.w3.org/1999/xlink"><defs><clipPath id="i0"><path d="M414,0 L414,896 L0,896 L0,0 L414,0 Z"></path></clipPath><clipPath id="i1"><path d="M19.8000189,14.7771613 C20.2418489,14.7771613 20.6000189,15.4935013 20.6000189,16.3771613 C20.6000189,17.2608213 20.2418489,17.9771613 19.8000189,17.9771613 L10.8000189,17.9771613 L10.7182232,17.9689007 C10.3148167,17.8869652 10.0000189,17.2055925 10.0000189,16.3771613 C10.0000189,15.4935013 10.3581889,14.7771613 10.8000189,14.7771613 L19.8000189,14.7771613 Z M15.8000189,1.5483871 C15.4980475,1.5483871 15.2075373,1.64721527 14.9749629,1.8251324 L14.8637189,1.92059032 L2.521,13.779 L1.901,16.163 L4.393,15.565 L16.7363189,3.7044871 C16.8588189,3.58684839 16.9556189,3.44748387 17.0215189,3.29450323 L17.0649564,3.17789879 C17.1023064,3.05956331 17.1213189,2.93647016 17.1213189,2.81253871 C17.1213189,2.64729677 17.0875189,2.48353548 17.0215189,2.33057419 L16.9663814,2.21851845 C16.9056126,2.10926915 16.8281939,2.00881935 16.7363189,1.92059032 L16.6402798,1.83694733 C16.5401314,1.75798548 16.4280439,1.69333065 16.3075189,1.64535484 C16.1869939,1.59737903 16.0598314,1.56682258 15.9302501,1.55454284 L15.8000189,1.5483871 Z M17.8637189,4.80324194 L5.3636889,16.8143226 C5.2611589,16.9128387 5.1329789,16.9826129 4.9927489,17.0162903 L0.992758897,17.9771613 L0.87522744,17.9965531 C0.639493387,18.0181284 0.403420326,17.9374424 0.233388897,17.7722903 C0.0350088973,17.5797097 -0.0443811027,17.3005161 0.0242288973,17.0368065 L1.0242289,13.1932258 L1.05784233,13.0932732 C1.09829827,12.9959879 1.1589114,12.9073306 1.2363489,12.8329355 L13.7363189,0.821825806 L13.8905448,0.683940525 C14.4198536,0.243798987 15.0972916,0 15.8000189,0 C16.1062589,0 16.4102589,0.0463649032 16.7008573,0.137053316 L16.9161189,0.213348387 C17.2701189,0.354251613 17.5921189,0.560922581 17.8637189,0.821825806 C18.1352189,1.08274839 18.3509189,1.39280323 18.4982189,1.73442581 C18.6454189,2.07605806 18.7213189,2.44242581 18.7213189,2.81253871 C18.7213189,3.18265161 18.6454189,3.54900968 18.4982189,3.89065161 L18.4017317,4.09169644 C18.2624069,4.35433045 18.0809189,4.59451161 17.8637189,4.80324194 Z"></path></clipPath></defs><g transform="translate(-352.0 -711.0)"><g clip-path="url(#i0)"><g transform="translate(20.0 692.0)"><g transform="translate(20.0 16.0)"><g transform="translate(310.0 0.0)"><g transform="translate(1.999999999999977 3.0)"><g clip-path="url(#i1)"><polygon points="-2.22599716e-14,0 20.6000189,0 20.6000189,17.9999883 -2.22599716e-14,17.9999883 -2.22599716e-14,0" stroke="none" fill="#131313"></polygon></g></g></g></g></g></g></g></svg>