<?xml version="1.0" encoding="UTF-8"?>
<svg width="22px" height="20px" viewBox="0 0 22 20" version="1.1" xmlns="http://www.w3.org/2000/svg" xmlns:xlink="http://www.w3.org/1999/xlink">
    <title>icon/home-disable</title>
    <g id="🥇-Design" stroke="none" stroke-width="1" fill="none" fill-rule="evenodd">
        <g id="Posts" transform="translate(-194.000000, -828.000000)">
            <g id="Tap-bar" transform="translate(0.000000, 801.000000)">
                <g id="Home" transform="translate(175.000000, 23.000000)">
                    <g id="icon/home-disable" transform="translate(13.000000, 0.000000)">
                        <path d="M0,0 L32.016,0 L32.016,29.8787879 L0,29.8787879 L0,0 Z" id="bg"></path>
                        <path d="M13.8419957,19.533761 C13.8419957,18.7697692 14.5456775,18.1504311 15.413713,18.1504311 L18.5868023,18.1504311 C19.0036476,18.1504311 19.4034202,18.2961745 19.6981744,18.5555991 C19.9929286,18.8150236 20.15852,19.1668792 20.15852,19.533761 L20.15852,22.5266244 C20.1558858,22.8442474 20.2974011,23.1496584 20.5516577,23.375073 C20.8059143,23.6004876 21.1518793,23.7272727 21.5127672,23.7272727 L23.6775853,23.7272727 C24.6886394,23.7295616 25.6591828,23.3776811 26.3750351,22.7492639 C27.0908874,22.1208467 27.4932003,21.2675497 27.4932003,20.3776787 L27.4932003,11.8514969 C27.4932003,11.1326768 27.1311646,10.4508358 26.5046986,9.98965729 L19.1403636,4.81304715 C17.8593216,3.90541051 16.0238687,3.93471582 14.7810721,4.88264866 L7.58478175,9.98965729 C6.9287059,10.4372407 6.53657798,11.1211036 6.51720025,11.8514969 L6.51720025,20.368979 C6.51720025,22.2237011 8.22550945,23.7272727 10.3328157,23.7272727 L12.4482086,23.7272727 C13.1977543,23.7272727 13.8069089,23.1950112 13.8123404,22.5353241 L13.8419957,22.5266244 L13.8419957,19.533761 Z" id="Vector" fill="#888888" fill-rule="nonzero"></path>
                    </g>
                </g>
            </g>
        </g>
    </g>
</svg>