<?xml version="1.0" encoding="UTF-8"?>
<svg width="29px" height="20px" viewBox="0 0 29 20" version="1.1" xmlns="http://www.w3.org/2000/svg" xmlns:xlink="http://www.w3.org/1999/xlink">
    <title>icon/leave@3x</title>
    <g id="Design" stroke="none" stroke-width="1" fill="none" fill-rule="evenodd">
        <g id="Chat-Settings" transform="translate(-346.000000, -774.000000)" fill="#131313">
            <g id="Menu" transform="translate(20.000000, 381.000000)">
                <g id="Option-6" transform="translate(0.000000, 374.000000)">
                    <g id="icon/leave" transform="translate(326.000000, 19.000000)">
                        <path d="M8.84416813,10.2835266 C11.1293536,10.3668012 13.2020817,8.66402468 13.3687207,6.18285431 C13.5221123,3.89917218 11.6579568,1.79610693 9.34039975,1.64534692 C6.8557555,1.48371645 4.75693084,3.29623051 4.63436701,5.75290545 C4.5122016,8.20156282 6.43736512,10.1990715 8.84416813,10.2835266 M1.62111956,20 L0,20 C0.00527905973,18.0391506 0.578555065,16.2766502 1.727647,14.7034626 C2.88077293,13.1247142 4.40193898,12.0439483 6.28780836,11.4182679 C4.01263322,10.0969015 2.83993492,8.15943693 3.00328696,5.52713047 C3.10393771,3.90493898 3.82273648,2.54370419 5.05420167,1.47589674 C7.6056808,-0.736475954 11.4851921,-0.424926612 13.6197251,2.16418496 C14.841429,3.64616684 15.2727182,5.35380478 14.8931737,7.22702312 C14.513181,9.10257499 13.4095089,10.4731438 11.69496,11.4104233 C13.5848634,12.0381394 15.1043859,13.1146354 16.2572131,14.6853902 C17.4117335,16.2585282 17.9868024,18.0245041 18,19.993198 L16.3650852,19.993198 C16.2840566,17.5516938 15.3117135,15.5504796 13.3407816,14.0810093 C11.8605033,12.9773551 10.1730469,12.5367176 8.3394701,12.6877508 C4.65478602,12.9912569 1.601597,16.1540165 1.62111956,20 M29,10.0774408 C28.9132175,10.1712338 28.8295041,10.2680535 28.7391719,10.3583029 C27.3153037,11.7809955 25.8905849,13.2028391 24.4660511,14.6248672 C24.4268566,14.6640307 24.3867747,14.7023082 24.3484677,14.7422468 C24.2431973,14.8519119 24.1148169,14.8829916 23.9770817,14.8283252 C23.8363514,14.7724776 23.7792605,14.6562054 23.7797043,14.5049407 C23.7815531,13.834585 23.7804068,13.1642293 23.7803329,12.4938367 C23.7803329,12.3047374 23.7803329,12.1156012 23.7803329,11.9022139 C23.6838627,11.9022139 23.6055477,11.9022139 23.5272328,11.9022139 C21.8392086,11.9022139 16.0005736,10.7179487 16,9.58974726 C15.9994966,8.5995875 21.8373598,8.03119676 23.5315959,8.03119676 L23.7803329,8.03119676 C23.7803329,7.93758837 23.7803329,7.87092561 23.7803329,7.80422593 C23.7803329,7.02317167 23.7822556,6.2421174 23.7788168,5.46106313 C23.7781143,5.29861418 23.8196013,5.16528866 23.9785237,5.10187414 C24.1353016,5.03927168 24.2606129,5.10080369 24.3757559,5.21596859 C25.8685473,6.70897819 27.3634833,8.19988381 28.857236,9.69197061 C28.9084107,9.74305658 28.9525599,9.8011558 29,9.85596986 L29,10.0774408 Z" id="icon"></path>
                    </g>
                </g>
            </g>
        </g>
    </g>
</svg>