<?xml version="1.0" encoding="UTF-8"?>
<svg width="20px" height="17px" viewBox="0 0 20 17" version="1.1" xmlns="http://www.w3.org/2000/svg" xmlns:xlink="http://www.w3.org/1999/xlink">
    <title>icon/like/active</title>
    <g id="🥇-Design" stroke="none" stroke-width="1" fill="none" fill-rule="evenodd">
        <g id="Posts" transform="translate(-273.000000, -327.000000)" fill="#EB4255">
            <g id="Card-1" transform="translate(19.000000, 191.000000)">
                <g id="icon/like/active" transform="translate(250.000000, 131.000000)">
                    <path d="M15.0790553,6.15470049 C18.3443116,3.59958007 23.2423354,5.51947819 23.9191919,9.61216744 C24.1742023,11.1543206 23.8201096,12.5528461 22.9354152,13.8324592 C22.032449,15.1383822 20.9514212,16.2858883 19.803914,17.3736791 C18.1070954,18.9822047 16.2955101,20.4529227 14.4060204,21.8287659 C14.0920543,22.0573822 13.9157045,22.0576214 13.5991906,21.8262147 C11.3413968,20.1756333 9.18256577,18.4079733 7.22388969,16.4063952 C6.35054062,15.5138949 5.53702306,14.570808 4.86331142,13.5139512 C2.76252056,10.2186084 4.69042501,5.78034387 8.54352695,5.10414206 C10.6954712,4.72647679 12.4839678,5.42839046 13.8933324,7.09603337 C13.9263333,7.13505958 13.96021,7.17344797 13.9735855,7.18895481 C14.3464676,6.83716085 14.6862692,6.46208669 15.0790553,6.15470049 Z" id="icon"></path>
                </g>
            </g>
        </g>
    </g>
</svg>