<?xml version="1.0" encoding="UTF-8"?>
<svg width="20px" height="17px" viewBox="0 0 20 17" version="1.1" xmlns="http://www.w3.org/2000/svg" xmlns:xlink="http://www.w3.org/1999/xlink">
    <title>icon/like/active@2x</title>
    <g id="Screens" stroke="none" stroke-width="1" fill="none" fill-rule="evenodd">
        <g id="Posts" transform="translate(-273.000000, -507.000000)" stroke="#F0CFB2" stroke-width="1.7">
            <g id="Card-2" transform="translate(19.000000, 371.000000)">
                <g id="icon/like/active" transform="translate(250.000000, 131.000000)">
                    <path d="M8.69045602,5.94134684 C10.5247605,5.61942721 12.0448858,6.22568495 13.2441244,7.64469445 C13.3828303,7.80881939 13.5101001,7.97536447 13.6257715,8.14415218 C13.8599697,8.05919109 14.0914442,7.96178455 14.3149746,7.83408344 C14.6628064,7.63536988 14.9572169,7.38283104 15.246151,7.12756725 C16.9831413,5.74403028 18.7081753,5.61422479 20.1587445,6.1815571 C21.6112848,6.74966036 22.7941026,8.01862188 23.08058,9.7508403 C23.2982027,11.0668939 22.9903393,12.2583599 22.2362678,13.3490413 C21.3668247,14.6064812 20.3239063,15.7095262 19.219137,16.7568032 C17.6794262,18.216396 16.0434758,19.5604149 14.3399149,20.8223479 C11.6084088,19.2903074 9.63286074,17.6528135 7.83141321,15.8119078 C6.99921898,14.9614648 6.22211816,14.0642378 5.58005357,13.0570259 C4.68996454,11.6608144 4.65651648,10.0224792 5.25153535,8.66277755 C5.84450068,7.30776854 7.06339946,6.22688785 8.69045602,5.94134684 Z" id="icon"></path>
                </g>
            </g>
        </g>
    </g>
</svg>