<?xml version="1.0" encoding="UTF-8"?>
<svg width="21px" height="18px" viewBox="0 0 21 18" version="1.1" xmlns="http://www.w3.org/2000/svg" xmlns:xlink="http://www.w3.org/1999/xlink">
    <title>icon/messages-disable</title>
    <g id="🥇-Design" stroke="none" stroke-width="1" fill="none" fill-rule="evenodd">
        <g id="Posts" transform="translate(-117.000000, -830.000000)">
            <g id="Tap-bar" transform="translate(0.000000, 801.000000)">
                <g id="Message" transform="translate(97.000000, 23.000000)">
                    <g id="icon/messages-disable" transform="translate(14.000000, 0.000000)">
                        <path d="M0,0 L32.016,0 L32.016,29.8787879 L0,29.8787879 L0,0 Z" id="bg"></path>
                        <path d="M20.738512,6.00243506 C23.8361863,6.00243506 26.172,8.51043529 26.172,11.8362814 L26.172,18.1759733 C26.172,19.8781271 25.5654884,21.4159727 24.4631629,22.5070497 C23.4743257,23.4845882 22.1915351,24.0024351 20.7533955,24.0024351 L11.587814,24.0024351 C10.1524652,24.0024351 8.87060467,23.4855112 7.88083722,22.5070497 C6.77851169,21.4159727 6.172,19.8781271 6.172,18.1759733 L6.172,11.8362814 C6.172,8.51043529 8.5078141,6.00243506 11.6054884,6.00243506 L20.738512,6.00243506 Z M22.1031623,12.6336348 L17.9692095,15.9677891 C17.4464188,16.3794814 16.8213027,16.5853273 16.1971167,16.5853273 C15.5747911,16.5853273 14.954326,16.3813272 14.4352562,15.9733272 L10.263163,12.6354808 C9.96269789,12.3954809 9.91618597,11.9588656 10.1571162,11.6616349 C10.3999069,11.3653272 10.838977,11.3182503 11.1385118,11.5573272 L15.3068834,14.8914811 C15.8306044,15.3031734 16.5682791,15.3031736 17.095721,14.887789 L21.2222316,11.5591737 C21.5217665,11.3164045 21.960836,11.3625581 22.2045569,11.6597888 C22.4473476,11.9560965 22.4017669,12.3917887 22.1031623,12.6336348 Z" id="Combined-Shape" fill="#888888"></path>
                    </g>
                </g>
            </g>
        </g>
    </g>
</svg>