<?xml version="1.0" encoding="UTF-8"?><svg version="1.1" width="23px" height="23px" viewBox="0 0 23.0 23.0" xmlns="http://www.w3.org/2000/svg" xmlns:xlink="http://www.w3.org/1999/xlink"><defs><clipPath id="i0"><path d="M414,0 L414,896 L0,896 L0,0 L414,0 Z"></path></clipPath><clipPath id="i1"><path d="M11.5,0 C17.8411841,0 23,5.15881586 23,11.5 C23,17.8411841 17.8411841,23 11.5,23 C5.15881586,23 0,17.8411841 0,11.5 C0,5.15881586 5.15881586,0 11.5,0 Z M11.5,1.71013881 C6.1019006,1.71013881 1.71013881,6.1019006 1.71013881,11.5 C1.71013881,16.8980994 6.1019006,21.2898612 11.5,21.2898612 C16.8980994,21.2898612 21.2898612,16.8980994 21.2898612,11.5 C21.2898612,6.1019006 16.8982637,1.71013881 11.5,1.71013881 Z M14.2678672,13.0070913 C14.5410749,13.0070913 14.7619112,13.2282716 14.7619112,13.5011353 L14.7619112,14.3731121 L15.442333,14.3731121 C15.7155407,14.3731121 15.936377,14.5942924 15.936377,14.8671561 C15.936377,15.1400198 15.7151967,15.3612001 15.442333,15.3612001 L14.7619112,15.3612001 L14.7619112,16.2335208 C14.7619112,16.5063845 14.5407309,16.7275649 14.2678672,16.7275649 C13.9946595,16.7275649 13.7738231,16.5063845 13.7738231,16.2335208 L13.7738231,15.3612001 L11.9943615,15.3612001 L11.9943615,16.2335208 C11.9943615,16.5063845 11.7731812,16.7275649 11.5003175,16.7275649 C11.2271098,16.7275649 11.0062735,16.5063845 11.0062735,16.2335208 L11.0062735,15.3612001 L9.22716466,15.3615446 L9.22716466,16.2338653 C9.22716466,16.506729 9.00598435,16.7279093 8.73312064,16.7279093 C8.45991295,16.7279093 8.23907662,16.506729 8.23907662,16.2338653 L8.23907662,15.3615446 L7.5586548,15.3615446 C7.28544712,15.3615446 7.06461078,15.1403643 7.06461078,14.8675006 C7.06461078,14.5946369 7.28579109,14.3734566 7.5586548,14.3734566 L8.23907662,14.3734566 L8.23907662,13.5014798 C8.23907662,13.2286161 8.46025692,13.0074358 8.73312064,13.0074358 C9.00632832,13.0074358 9.22716466,13.2286161 9.22716466,13.5014798 L9.22716466,14.3734566 L11.0062735,14.3734566 L11.0062735,13.5014798 C11.0062735,13.2286161 11.2274538,13.0074358 11.5003175,13.0074358 C11.7735252,13.0074358 11.9943615,13.2286161 11.9943615,13.5014798 L11.9943615,14.3734566 L13.7738231,14.3731121 L13.7738231,13.5011353 C13.7738231,13.2282716 13.9950035,13.0070913 14.2678672,13.0070913 Z M7.0436693,7.11862374 C8.19225815,7.11862374 9.1796759,7.97686824 9.33987683,9.11478526 C9.37811903,9.38488841 9.19001258,9.63431908 8.91990943,9.67256039 C8.8961377,9.67600554 8.8730548,9.67738362 8.85031674,9.67738362 C8.60777514,9.67738362 8.39658137,9.49926988 8.36178503,9.25224787 C8.26979561,8.59905246 7.70305967,8.10639313 7.04368165,8.10639313 C6.38430363,8.10639313 5.81756768,8.59904364 5.72557827,9.25224787 C5.68733607,9.52200706 5.44445049,9.71217908 5.16745916,9.67255925 C4.89732602,9.6343182 4.70922045,9.38488841 4.74746177,9.11478526 C4.90727464,7.97682414 5.89472766,7.11862374 7.0436693,7.11862374 Z M15.9568528,7.11862374 C17.1054417,7.11862374 18.0928594,7.97686824 18.2530604,9.11478526 C18.2913026,9.38488841 18.1031961,9.63431908 17.833093,9.67256039 C17.8093212,9.67600554 17.7862383,9.67738362 17.7635003,9.67738362 C17.5209587,9.67738362 17.3097649,9.49926988 17.2749686,9.25224787 C17.1829791,8.59905246 16.6162432,8.10639313 15.9568652,8.10639313 C15.2974872,8.10639313 14.7307512,8.59904364 14.6387618,9.25224787 C14.6005196,9.52200706 14.3559142,9.71217908 14.0806427,9.67255925 C13.8105095,9.6343182 13.622404,9.38488841 13.6606453,9.11478526 C13.8204582,7.97682414 14.8079112,7.11862374 15.9568528,7.11862374 Z"></path></clipPath></defs><g transform="translate(-351.0 -715.0)"><g clip-path="url(#i0)"><g transform="translate(20.0 642.0)"><g transform="translate(0.0 56.0)"><g transform="translate(331.0 17.0)"><g clip-path="url(#i1)"><polygon points="0,0 23,0 23,23 0,23 0,0" stroke="none" fill="#000000"></polygon></g></g></g></g></g></g></svg>