<?xml version="1.0" encoding="UTF-8"?>
<svg width="20px" height="21px" viewBox="0 0 20 21" version="1.1" xmlns="http://www.w3.org/2000/svg" xmlns:xlink="http://www.w3.org/1999/xlink">
    <title>icon/notification</title>
    <g id="🥇-Design" stroke="none" stroke-width="1" fill="none" fill-rule="evenodd">
        <g id="Posts" transform="translate(-304.000000, -61.000000)">
            <g id="icon/notification" transform="translate(302.000000, 59.999984)">
                <polygon id="Background" points="0 0 24 0 24 24 0 24"></polygon>
                <path d="M10.6258891,21.4653294 L10.4507016,21.3601603 C10.1093986,21.1377793 9.82374904,20.8444119 9.61572978,20.5010182 L9.56750813,20.4060139 C9.43336193,20.083101 9.56281766,19.7062407 9.88615163,19.5266372 C10.241819,19.3290734 10.6973986,19.4450096 10.9037188,19.7855822 C11.0155244,19.9701444 11.1759926,20.1233389 11.3690793,20.2298291 C11.5621566,20.3363104 11.7810589,20.3923625 12.0038792,20.3923625 C12.2266901,20.3923714 12.4456017,20.3363193 12.6386791,20.2298291 L12.750484,20.1604443 C12.8939972,20.0607978 13.0145858,19.9332249 13.1040303,19.7855822 L13.1662171,19.698335 C13.3923574,19.4265212 13.7982634,19.3470337 14.1215974,19.5266372 C14.4772648,19.7242011 14.5983395,20.1604456 14.3920193,20.5010182 L14.2816422,20.6684374 C14.0483566,20.9945697 13.7411036,21.2671927 13.3818599,21.4653294 L13.1989405,21.5576797 C12.826792,21.7287944 12.41845,21.8181818 12.0038792,21.8181818 C11.5202039,21.818164 11.045016,21.6964978 10.6258891,21.4653294 Z M15.7508942,4.00445456 L15.5602964,3.83076561 C14.652126,3.04331375 13.4867033,2.58109183 12.2630326,2.52296203 L11.9999985,2.51671946 C10.5931403,2.51671946 9.2438974,3.05187065 8.24909339,4.00445456 C7.25428939,4.95703847 6.69541942,6.24901872 6.69541942,7.59616892 L6.69169163,8.00853528 C6.63287195,11.2620497 5.88183361,13.4297936 5.09221742,14.815938 C4.92949403,15.1016136 4.76575156,15.3529949 4.60706441,15.5728958 L19.3929122,15.5728958 C19.2342272,15.3529949 19.0704862,15.1016136 18.9077702,14.815938 C18.0851882,13.3720376 17.3045775,11.0800474 17.3045775,7.59616892 C17.3045775,6.24901872 16.7457354,4.95703847 15.7508942,4.00445456 Z M20.2149301,14.1332421 C20.5608445,14.7404591 20.9002445,15.1432506 21.1415563,15.3871532 C21.2623518,15.5092383 21.3590441,15.5920244 21.4202794,15.6408584 C21.4508971,15.6652754 21.4726738,15.6813157 21.4842135,15.6895142 L21.5719235,15.7549739 C21.7839412,15.9376635 21.8706619,16.2240049 21.7862023,16.4912652 C21.6910921,16.7919329 21.4016668,16.9976061 21.0736205,16.9976061 L2.92637641,16.9976061 C2.59830216,16.9976061 2.30889549,16.7919329 2.21382255,16.4912652 C2.1187496,16.1905974 2.24041989,15.86578 2.51340098,15.6915638 C2.52345176,15.6840486 2.53569675,15.6750976 2.55208339,15.662503 L2.57971752,15.6408584 C2.64097145,15.5920244 2.73767299,15.5092383 2.85848711,15.3871532 C3.09973378,15.1432506 3.43914308,14.7404591 3.78504817,14.1332421 C4.47480165,12.9223727 5.20641477,10.8700078 5.20641477,7.59616892 L5.21301514,7.30933534 C5.28766623,5.68836027 5.99294994,4.14845547 7.1962089,2.99625514 L7.41268809,2.79790159 C8.6624817,1.70224152 10.2983267,1.09090909 11.9999985,1.09090909 C13.8017871,1.09090909 15.529777,1.77627831 16.8038066,2.99625514 C18.0778362,4.21623196 18.7935821,5.87086707 18.7935821,7.59616892 C18.7935821,10.8700078 19.5252418,12.9223727 20.2149301,14.1332421 Z" id="notification" fill="#F0CFB2"></path>
                <circle id="Oval" fill="#FB2121" cx="18.5454545" cy="9.81818182" r="3.27272727"></circle>
            </g>
        </g>
    </g>
</svg>