<?xml version="1.0" encoding="UTF-8"?>
<svg width="24px" height="24px" viewBox="0 0 24 24" version="1.1" xmlns="http://www.w3.org/2000/svg" xmlns:xlink="http://www.w3.org/1999/xlink">
    <title>icon/close</title>
    <g id="Design" stroke="none" stroke-width="1" fill="none" fill-rule="evenodd">
        <g id="Subscription" transform="translate(-328.000000, -262.000000)" fill="#FFFFFF" fill-rule="nonzero">
            <g id="Subscribe" transform="translate(47.000000, 247.000000)">
                <path d="M293,15 C286.4,15 281,20.4 281,27 C281,33.6 286.4,39 293,39 C299.6,39 305,33.6 305,27 C305,20.4 299.6,15 293,15 Z M297.44,29.76 C297.92,30.24 297.92,30.96 297.44,31.44 C296.96,31.92 296.24,31.92 295.76,31.44 L293,28.68 L290.24,31.44 C289.76,31.92 289.04,31.92 288.56,31.44 C288.08,30.96 288.08,30.24 288.56,29.76 L291.32,27 L288.56,24.24 C288.08,23.76 288.08,23.04 288.56,22.56 C289.04,22.08 289.76,22.08 290.24,22.56 L293,25.32 L295.76,22.56 C296.24,22.08 296.96,22.08 297.44,22.56 C297.92,23.04 297.92,23.76 297.44,24.24 L294.68,27 L297.44,29.76 Z" id="icon/close"></path>
            </g>
        </g>
    </g>
</svg>