<?xml version="1.0" encoding="UTF-8"?>
<svg width="18px" height="20px" viewBox="0 0 18 20" version="1.1" xmlns="http://www.w3.org/2000/svg" xmlns:xlink="http://www.w3.org/1999/xlink">
    <title>icon/privacy</title>
    <g id="Design" stroke="none" stroke-width="1" fill="none" fill-rule="evenodd" stroke-linecap="round" stroke-linejoin="round">
        <g id="My-Profile" transform="translate(-376.000000, -530.000000)">
            <g id="Other" transform="translate(-1.000000, 376.000000)">
                <g id="Privacy-Policy" transform="translate(19.000000, 153.000000)">
                    <g id="icon/privacy" transform="translate(356.000000, 0.000000)">
                        <polygon id="Background" points="0 0 22 0 22 22 0 22"></polygon>
                        <path d="M7.09007692,9.40923077 L14.9030769,9.40923077 L14.9035615,6.41949 L14.8962974,6.18125484 C14.8383486,5.23212326 14.4356723,4.33347604 13.7594262,3.65723769 C13.0268346,2.92464615 12.0332215,2.51307692 10.9971823,2.51307692 C9.96113462,2.51307692 8.96752154,2.92464615 8.23493,3.65723769 L8.07161025,3.8308313 C7.44145544,4.54294387 7.09076923,5.46313828 7.09076923,6.41949 L7.09007692,9.40923077 Z M17.4166385,10.7630769 L4.58333615,10.7630769 C3.94466769,10.7630769 3.42692308,11.2808215 3.42692308,11.91949 L3.42692308,18.3361538 L3.43370876,18.4621594 C3.49200853,19.0001784 3.91932161,19.4275048 4.45733236,19.4858064 L4.58333615,19.4925923 L17.4166385,19.4925923 C18.0553154,19.4925923 18.5730769,18.9748308 18.5730769,18.3361538 L18.5730769,11.91949 C18.5730769,11.2808215 18.0553154,10.7630769 17.4166385,10.7630769 Z M7.27761692,2.69992462 L7.4666305,2.52005361 C8.4315741,1.64632535 9.6892638,1.15923077 10.9971823,1.15923077 C12.3050929,1.15923077 13.5627821,1.64632535 14.5277257,2.52005361 L14.7167392,2.69992462 C15.7032615,3.68641308 16.2574077,5.02437692 16.2574077,6.41949 L16.2570769,9.40923077 L14.9030769,9.40923077 L14.9035615,10.0861538 C14.9035615,10.426 15.154051,10.7073846 15.4804592,10.7557368 L15.5804846,10.7630769 C15.9204077,10.7630769 16.2017294,10.5125874 16.2500695,10.1861793 L16.2574077,10.0861538 L16.2570769,9.40923077 L17.4166385,9.40923077 C18.8030615,9.40923077 19.9269231,10.5331092 19.9269231,11.91949 L19.9269231,18.3361538 C19.9269231,19.7224923 18.8030615,20.8464385 17.4166385,20.8464385 L4.58333615,20.8464385 C3.19695538,20.8464385 2.07307692,19.7224923 2.07307692,18.3361538 L2.07307692,11.91949 L2.07841641,11.7544394 C2.1634072,10.4449972 3.25241062,9.40923077 4.58333615,9.40923077 L5.73607692,9.40923077 L5.73692308,6.41949 C5.73692308,5.02437692 6.29112846,3.68641308 7.27761692,2.69992462 Z" id="security" fill="#F6E3D2"></path>
                    </g>
                </g>
            </g>
        </g>
    </g>
</svg>