<?xml version="1.0" encoding="UTF-8"?>
<svg width="18px" height="18px" viewBox="0 0 18 18" version="1.1" xmlns="http://www.w3.org/2000/svg" xmlns:xlink="http://www.w3.org/1999/xlink">
    <title>icon/rate</title>
    <g id="Design" stroke="none" stroke-width="1" fill="none" fill-rule="evenodd" stroke-linecap="round" stroke-linejoin="round">
        <g id="My-Profile" transform="translate(-375.000000, -476.000000)">
            <g id="Other" transform="translate(-1.000000, 376.000000)">
                <g id="Rate" transform="translate(19.000000, 97.000000)">
                    <g id="icon/rate" transform="translate(354.000000, 0.000000)">
                        <polygon id="Background" points="0 0 24 0 24 24 0 24"></polygon>
                        <path d="M11.9897268,3.69975138 C11.9015018,3.87334674 11.8448236,3.97992649 11.7923242,4.0886975 C11.0339075,5.65963808 10.2802582,7.23319599 9.51030574,8.79811065 C9.44379861,8.93329834 9.28147413,9.08345954 9.14492853,9.10622415 C7.78941909,9.33198333 6.42973089,9.53089975 5.07169066,9.74083326 C4.61090809,9.81204875 4.1514792,9.8930031 3.69146176,9.96945323 C3.67586496,10.0034175 3.66032701,10.0374427 3.6447302,10.0714679 C3.74131268,10.1439007 3.8489012,10.2049513 3.93300623,10.2905316 C5.12984025,11.5087425 6.32061212,12.7334663 7.52180147,13.9469903 C7.67170736,14.0984297 7.72102858,14.2422607 7.68689218,14.4486639 C7.45541206,15.8480786 7.22917011,17.2484672 7.00345787,18.6489167 C6.92311961,19.1476686 6.84884351,19.6474552 6.7624431,20.2073794 C6.94542598,20.1169296 7.06190174,20.0634267 7.174905,20.0028631 C8.69185608,19.1895457 10.2102197,18.37915 11.7224034,17.5565198 C11.9179226,17.4501227 12.0685348,17.4537748 12.2604049,17.5580415 C13.7724709,18.3798804 15.289422,19.1920413 16.8054314,20.0062108 C16.9179049,20.0666527 17.0343807,20.1192426 17.1805787,20.190945 C17.1805787,20.0785219 17.1907019,20.0029848 17.1791073,19.9311607 C16.8867113,18.122896 16.5941977,16.3146922 16.295151,14.5076449 C16.255541,14.2681295 16.3008012,14.0973341 16.4796642,13.9172868 C17.6832078,12.7062583 18.8733322,11.4809258 20.0670469,10.2593672 C20.1465023,10.1781085 20.2195424,10.0902152 20.3282492,9.96890542 C18.482647,9.6819131 16.700256,9.39997281 14.915805,9.13318865 C14.6867379,9.09892 14.5551362,9.01340055 14.4516088,8.79458031 C13.8531623,7.5291359 13.2395311,6.27136085 12.6301374,5.01145542 C12.4281441,4.59390137 12.2233257,4.17792989 11.9897268,3.69975138 L11.9897268,3.69975138 Z M21,10.5535339 C20.961616,10.7348187 20.9339546,10.9194249 20.8827241,11.0967455 C20.7617704,11.5148684 20.5422926,11.871438 20.2393645,12.1776508 C19.498672,12.9262542 18.7672519,13.6846612 18.0218974,14.4282289 C17.8882527,14.5616211 17.8755616,14.6902454 17.903223,14.8576553 C18.0874766,15.9724176 18.2878401,17.08493 18.4429302,18.2041387 C18.5728454,19.1417947 18.2743721,19.9405943 17.527619,20.5072701 C16.7763593,21.077428 15.9499892,21.1560169 15.1120158,20.7261083 C14.1321097,20.2234501 13.1653608,19.6932027 12.1981974,19.1645625 C12.042693,19.079545 11.9265049,19.0820629 11.7728134,19.1656875 C10.8275616,19.6799706 9.87878743,20.1874502 8.92711241,20.689037 C7.49519685,21.443694 5.84416604,20.6470908 5.55765861,19.0155811 C5.47296512,18.5335478 5.5741829,18.0066754 5.64271469,17.508035 C5.7673462,16.6002717 5.93792457,15.6993118 6.07053333,14.7926199 C6.08736842,14.6776562 6.02443107,14.5112106 5.9426384,14.4259253 C5.21313484,13.6658041 4.4677804,12.9220221 3.73361481,12.1666151 C3.03835125,11.4511723 2.82731685,10.5890515 3.14319505,9.63810985 C3.45622423,8.69568596 4.1346527,8.17288499 5.09456397,8.03268926 C6.1350247,7.8806543 7.17387962,7.71629798 8.21102513,7.5421917 C8.30556066,7.52633463 8.41599889,7.41779946 8.46287816,7.32265708 C8.92866641,6.37814392 9.39103585,5.43164862 9.83724359,4.47717123 C10.1946656,3.71265717 10.7447848,3.21294537 11.5573242,3.03926766 C11.5812041,3.0341784 11.6019242,3.01344636 11.6241466,3 L12.3493507,3 C12.3710032,3.0139285 12.3911017,3.03567839 12.4145673,3.04071408 C13.2154516,3.21305251 13.7636024,3.70188937 14.1189524,4.45579633 C14.5715834,5.41595227 15.037786,6.36935824 15.5102047,7.31922852 C15.5598294,7.41908517 15.6826479,7.52729892 15.7851089,7.54438812 C16.8467559,7.72122652 17.911252,7.87974359 18.9748157,8.04409992 C19.9421862,8.19361703 20.7007497,8.91607772 20.9226104,9.89969783 C20.9515149,10.0275722 20.9743589,10.1569466 21,10.2856781 L21,10.5535339 Z" id="rate" fill="#F6E3D2"></path>
                    </g>
                </g>
            </g>
        </g>
    </g>
</svg>