<?xml version="1.0" encoding="UTF-8"?><svg version="1.1" width="15px" height="20px" viewBox="0 0 15.0 20.0" xmlns="http://www.w3.org/2000/svg" xmlns:xlink="http://www.w3.org/1999/xlink"><defs><clipPath id="i0"><path d="M14.784903,0 C14.9397445,0 15.0447639,0.13482281 14.980839,0.253535025 C14.9778335,0.25908369 14.9747702,0.264583682 14.9715913,0.269986328 C13.5013201,2.79827907 11.0911232,4.53612128 9.61894461,7.06358659 L9.6028189,7.09137859 C9.53375003,7.21111292 9.63697766,7.35051095 9.7951136,7.35051095 L12.2365684,7.35051095 C12.4172456,7.35051095 12.5166008,7.52748414 12.4022181,7.64532025 C8.40558648,11.7638407 4.44721729,15.8428878 0.491853596,19.9188199 C0.410011311,20.003218 0.267249696,20.0247312 0.155641325,19.9695366 C0.0207980674,19.9028553 -0.0339368511,19.769006 0.0213182515,19.6514619 C1.27658009,16.9805101 2.53374927,14.3054697 3.80479002,11.6008366 C3.86050751,11.4823677 3.75693309,11.3535803 3.60561734,11.3535803 L0.580573871,11.3535803 C0.424287472,11.3535803 0.322100211,11.2156424 0.3908223,11.0974656 C2.65524114,7.21067487 5.85634894,4.11569748 8.12088337,0.23158373 C8.14949349,0.182521855 8.18232288,0.135260863 8.21555686,0.0881945605 C8.25405048,0.0334866764 8.32398633,0 8.39941301,0 L14.784903,0 Z"></path></clipPath></defs><g transform="translate(-25.0 -14.0)"><g transform="translate(25.0 14.0)"><g clip-path="url(#i0)"><polygon points="-2.77555756e-17,0 14.99988,0 14.99988,20 -2.77555756e-17,20 -2.77555756e-17,0" stroke="none" fill="#131313"></polygon></g></g></g></svg>