<?xml version="1.0" encoding="UTF-8"?><svg version="1.1" width="24px" height="24px" viewBox="0 0 24.0 24.0" xmlns="http://www.w3.org/2000/svg" xmlns:xlink="http://www.w3.org/1999/xlink"><defs><clipPath id="i0"><path d="M414,0 L414,896 L0,896 L0,0 L414,0 Z"></path></clipPath><clipPath id="i1"><path d="M12,0 C18.627417,0 24,5.372583 24,12 C24,18.627417 18.627417,24 12,24 C5.372583,24 0,18.627417 0,12 C0,5.372583 5.372583,0 12,0 Z"></path></clipPath><clipPath id="i2"><path d="M1.01039767,10.0000954 C1.57189995,10.0078608 2.00936948,10.460696 1.99984748,11.0243469 C1.99062149,11.5733461 1.54343261,12.0050829 0.989330853,11.9999548 C0.42694051,11.994729 -0.0100849876,11.5437009 0.000177069733,10.9791709 C0.010192443,10.4305135 0.462068322,9.99257424 1.01039767,10.0000954 Z M1.78638209,0.282935183 C1.91377153,0.429319884 1.9889313,0.622853032 1.99014729,0.795485743 C2.00392852,2.75673866 1.99894875,4.71803241 1.99894875,6.67936697 C1.99894875,6.8693895 2.00178606,7.05941203 1.99813809,7.24943455 C1.98985777,7.68585364 1.55627043,8.00678965 0.987881889,7.99989087 C0.423720364,7.99303291 0.00379843217,7.68062853 0.00223501626,7.25355749 C-0.00181828424,6.16771448 0.000845313236,5.08187146 0.00101902611,3.99602844 C0.0011348347,2.90336829 -0.00158666706,1.81074896 0.0027561549,0.718129634 C0.00414585793,0.387110798 0.269694945,0.130345664 0.682899979,0.03568138 C1.08388721,-0.0561662436 1.5666932,0.0303746284 1.78638209,0.282935183 Z"></path></clipPath></defs><g transform="translate(-350.0 -772.0)"><g clip-path="url(#i0)"><g transform="translate(20.0 642.0)"><g transform="translate(0.0 113.0)"><g transform="translate(330.0 17.0)"><g clip-path="url(#i1)"><path d="M12,24 C18.627417,24 24,18.627417 24,12 C24,5.372583 18.627417,0 12,0 C5.372583,0 0,5.372583 0,12 C0,18.627417 5.372583,24 12,24 Z" stroke="#DA2C22" stroke-width="3" fill="none" stroke-miterlimit="5"></path></g><g transform="translate(11.00000189709226 6.0)"><g clip-path="url(#i2)"><polygon points="1.57426155e-16,-1.04083409e-15 2,-1.04083409e-15 2,12 1.57426155e-16,12 1.57426155e-16,-1.04083409e-15" stroke="none" fill="#DA2C22"></polygon></g></g></g></g></g></g></g></svg>