<?xml version="1.0" encoding="UTF-8"?><svg version="1.1" width="20px" height="20px" viewBox="0 0 20.0 20.0" xmlns="http://www.w3.org/2000/svg" xmlns:xlink="http://www.w3.org/1999/xlink"><defs><clipPath id="i0"><path d="M414,0 L414,896 L0,896 L0,0 L414,0 Z"></path></clipPath><clipPath id="i1"><path d="M13.7878742,13.9715415 C13.811298,13.9359745 13.839458,13.9024256 13.8709418,13.8709418 C13.9024256,13.839458 13.9359745,13.811298 13.9711524,13.7864618 C15.2274899,12.4863053 16.0000364,10.7151766 16.0000364,8.76363273 L15.9960093,8.51991354 C15.8674808,4.63620977 12.678584,1.52727273 8.76363273,1.52727273 C4.76709818,1.52727273 1.52727273,4.76709818 1.52727273,8.76363273 L1.53129972,9.00735069 C1.65982567,12.8910365 4.84866011,16.0000364 8.76363273,16.0000364 C10.7151766,16.0000364 12.4863053,15.2274899 13.7878742,13.9715415 Z M0,8.76363273 L0.00373633742,8.50524001 C0.140421439,3.78474011 4.01004701,0 8.76363273,0 C13.6036364,0 17.5273091,3.92361818 17.5273091,8.76363273 L17.5235727,9.02202492 C17.4643818,11.0661869 16.7051665,12.9348832 15.4772884,14.3967523 L19.3008764,18.2209309 C19.5990982,18.5191527 19.5990982,19.0026655 19.3008764,19.3008764 C19.0026655,19.5990982 18.5191527,19.5990982 18.2209418,19.3008764 L14.3967523,15.4772884 C12.8735045,16.7567208 10.9085499,17.5273091 8.76363273,17.5273091 C3.92361818,17.5273091 0,13.6036364 0,8.76363273 Z"></path></clipPath></defs><g transform="translate(-372.0 -102.0)"><g clip-path="url(#i0)"><g transform="translate(20.0 100.0)"><g transform="translate(350.0 0.0)"><g transform="translate(2.236363636363638 2.2363636363636488)"><g clip-path="url(#i1)"><polygon points="0,0 19.5245427,0 19.5245427,19.5245427 0,19.5245427 0,0" stroke="none" fill="#FFFFFF"></polygon></g></g></g></g></g></g></svg>