<?xml version="1.0" encoding="UTF-8"?>
<svg width="22px" height="23px" viewBox="0 0 22 23" version="1.1" xmlns="http://www.w3.org/2000/svg" xmlns:xlink="http://www.w3.org/1999/xlink">
    <title>icon/settings-disable</title>
    <g id="🥇-Design" stroke="none" stroke-width="1" fill="none" fill-rule="evenodd">
        <g id="Posts" transform="translate(-357.000000, -829.000000)">
            <g id="Tap-bar" transform="translate(0.000000, 801.000000)">
                <g id="Settings" transform="translate(337.000000, 23.000000)">
                    <g id="icon/settings-disable" transform="translate(15.000000, 0.000000)">
                        <path d="M0,0 L32.016,0 L32.016,31.9633545 L0,31.9633545 L0,0 Z" id="bg"></path>
                        <path d="M15.9997738,19.8544179 C18.1858947,19.8515929 19.9479293,18.1330868 19.9469637,16.004668 C19.9459973,13.8763668 18.1826645,12.159683 15.9963625,12.158595 C13.8045361,12.1574787 12.0375505,13.8808048 12.0418897,16.0153956 C12.0461844,18.1426388 13.8138643,19.8572359 15.9997738,19.8544179 M24.0944828,23.6969306 C23.9684765,23.6511104 23.7848709,23.5885376 23.6045558,23.517941 C22.8187827,23.210455 22.0345795,22.8990307 21.2472971,22.5952186 C21.1950712,22.5750272 21.1056532,22.5849319 21.0607933,22.6170266 C20.5208442,23.0033091 19.9487746,23.3338668 19.3341998,23.5950329 C19.2909701,23.6134021 19.2395895,23.6639248 19.2329782,23.7056597 C19.1738996,24.0776583 19.1251152,24.4512146 19.0711686,24.8240362 C19.0109126,25.2403266 18.9488151,25.6563526 18.8866271,26.0723786 C18.8642575,26.2222713 18.8432766,26.3724874 18.8147787,26.5212928 C18.7528926,26.8443852 18.5608342,27.0039769 18.2227849,27.0049174 C17.2619495,27.007592 16.3010537,27.0063282 15.3402184,27.0065045 C14.8572648,27.0066221 14.3738887,26.9937783 13.8915088,27.010002 C13.3997101,27.0265196 13.2022178,26.8296016 13.137343,26.3683139 C13.0276686,25.5884012 12.9182056,24.8084591 12.8081992,24.0285464 C12.7938597,23.9268544 12.7850447,23.823399 12.7575733,23.7249988 C12.7439583,23.6763865 12.7031739,23.6164294 12.6585253,23.5973842 C12.039875,23.3328087 11.4647263,22.9974016 10.9191319,22.6107663 C10.8775323,22.5812874 10.7941218,22.5741161 10.7451261,22.5931613 C9.86051638,22.9362982 8.97817076,23.28499 8.09546289,23.6327118 C7.74425141,23.7710835 7.49377853,23.6804718 7.29157684,23.3398625 C6.58960672,22.1575611 5.88863282,20.9747307 5.18545516,19.7931347 C5.0766261,19.6102067 4.96248388,19.4356845 5.01914744,19.204879 C5.0568829,19.0510772 5.14744801,18.9452118 5.26883543,18.8525722 C6.00328824,18.292267 6.73611087,17.7299046 7.47219384,17.1716274 C7.55675146,17.1075262 7.58603418,17.0432487 7.57749087,16.936913 C7.54857041,16.5763473 7.52079711,16.2148118 7.51774809,15.8534233 C7.51557453,15.5952256 7.5480874,15.3360874 7.57679654,15.0785951 C7.58857,14.9733763 7.56019293,14.9080994 7.47427684,14.8429108 C6.74196741,14.2874551 6.01364285,13.7270031 5.28314472,13.1692844 C4.9774875,12.9359513 4.91828811,12.6726102 5.11046726,12.3480188 C5.84102576,11.1142837 6.57258048,9.88107752 7.30561443,8.64869431 C7.49673699,8.32733594 7.75587394,8.24624688 8.10947029,8.38570595 C8.9874084,8.73201707 9.86519558,9.07868087 10.7451865,9.42005434 C10.7941822,9.43904076 10.877804,9.4316049 10.9191923,9.40192025 C11.4628848,9.01234596 12.0389392,8.67881982 12.6584045,8.41612537 C12.7010305,8.39805006 12.7496941,8.34532307 12.7563658,8.30285345 C12.8155651,7.92588779 12.8647722,7.5474526 12.9193226,7.16975217 C12.9780088,6.76307247 13.038627,6.3566279 13.0996981,5.9502715 C13.1236374,5.79076794 13.1488749,5.63141134 13.177252,5.47261316 C13.2289345,5.1832613 13.4326758,5.01070826 13.7406877,5.00876847 C14.4097223,5.00462437 15.0788173,5.00665233 15.7479123,5.00653477 C16.5427418,5.00635843 17.337843,5.0181735 18.1323707,5.0023025 C18.6126072,4.99269173 18.7998355,5.23713453 18.8568915,5.64704721 C18.9714866,6.47063459 19.1069116,7.29172375 19.2050238,8.11710396 C19.231016,8.3360356 19.328615,8.42306158 19.5134583,8.50171121 C20.053166,8.73139986 20.5542929,9.02901051 21.0242654,9.37441052 C21.1149211,9.44103933 21.1867392,9.45135548 21.2957796,9.40771023 C22.1577782,9.06263352 23.0239731,8.72737333 23.8873302,8.38550022 C24.2351304,8.2477752 24.4939956,8.32183987 24.6817673,8.63708497 C25.4255181,9.88572126 26.1672463,11.1355332 26.9074047,12.386168 C27.0731389,12.6661442 27.0141206,12.9358043 26.7485837,13.1391001 C26.0071876,13.7066353 25.2655801,14.2738178 24.5211048,14.8375029 C24.4312944,14.9055424 24.4030683,14.9748458 24.412155,15.0860604 C24.4412566,15.4417178 24.4686072,15.7984626 24.4710223,16.1549723 C24.4728336,16.418137 24.4399283,16.6821246 24.4114607,16.9446133 C24.4004419,17.0458938 24.4321095,17.1066445 24.5122898,17.1675715 C25.2440558,17.7235562 25.9725012,18.2836556 26.7028182,18.8414037 C27.0161432,19.0807031 27.0720521,19.3379015 26.8726881,19.6744843 C26.1444843,20.9038696 25.4132315,22.1315503 24.6867182,23.3618761 C24.5667798,23.5649956 24.404306,23.6875844 24.0944828,23.6969306" id="Fill-1" fill="#888888"></path>
                    </g>
                </g>
            </g>
        </g>
    </g>
</svg>