<?xml version="1.0" encoding="UTF-8"?>
<svg width="20px" height="18px" viewBox="0 0 20 18" version="1.1" xmlns="http://www.w3.org/2000/svg" xmlns:xlink="http://www.w3.org/1999/xlink">
    <title>Vector (Stroke)</title>
    <g id="🥇-Design" stroke="none" stroke-width="1" fill="none" fill-rule="evenodd">
        <g id="Sign-up" transform="translate(-326.000000, -568.000000)" fill="#AAAAAA">
            <g id="form" transform="translate(20.000000, 216.000000)">
                <g id="password" transform="translate(23.000000, 220.000000)">
                    <g id="Form/password" transform="translate(0.000000, 93.000000)">
                        <g id="icon/preview-close-one" transform="translate(283.833496, 39.666672)">
                            <path d="M2.25584487,0.244077711 L17.2558436,15.2440782 C17.5812801,15.5695164 17.5812801,16.0971527 17.2558436,16.4225909 C16.9304054,16.7480275 16.4027693,16.7480275 16.0773311,16.4225909 L10.5540203,10.8992776 C10.1413925,11.122764 9.66852025,11.2500009 9.16658878,11.2500009 C7.55576863,11.2500009 6.24992197,9.94415439 6.24992197,8.33333397 C6.24992197,7.83150415 6.37713456,7.35857742 6.60063249,6.94588953 L1.0773336,1.42258913 C0.751896709,1.09715222 0.751896709,0.569514626 1.0773336,0.244077711 C1.40277046,-0.0813592536 1.93040791,-0.0813592536 2.25584487,0.244077711 Z M7.91658889,8.33333397 C7.91658889,9.02367979 8.47624308,9.58333406 9.16658878,9.58333406 C9.18994903,9.58333406 9.21315272,9.58269828 9.23618554,9.58144261 L7.91847876,8.26373561 C7.91722388,8.28676684 7.91658889,8.30997133 7.91658889,8.33333397 Z M7.71394901,4.35045196 C7.26726986,4.46133807 6.81527357,4.18912403 6.70438708,3.7424444 C6.593501,3.29576478 6.86571459,2.84376842 7.31239414,2.73288211 C7.90541064,2.58566836 8.52590487,2.5 9.16658878,2.5 C11.757887,2.5 14.0292513,3.89727145 15.5909477,5.19175013 C16.3836179,5.84878767 17.0230231,6.5039143 17.4645806,6.99474865 C17.6858426,7.24070366 17.8586944,7.44682289 17.9775556,7.5932143 C18.0370172,7.66644775 18.0830574,7.724846 18.1149785,7.76593506 C18.1309414,7.78648277 18.1433821,7.80271351 18.1522147,7.81431814 L18.1627464,7.82822192 L18.1659651,7.83250153 L18.1670571,7.83396145 C18.1672303,7.83419271 18.1678057,7.8349636 17.4999206,8.33333397 C18.1678041,8.83170831 18.1677278,8.83180924 18.1676483,8.83191494 L18.1670555,8.83270967 L18.1659619,8.83416958 L18.1627449,8.83844999 L18.1522115,8.85235298 C18.1433805,8.8639576 18.1309382,8.88018835 18.1149753,8.90073606 C18.0830542,8.94182512 18.037014,9.00022337 17.9775524,9.07345603 C17.8586897,9.21984743 17.6858362,9.42596666 17.4645727,9.67192167 C17.0230135,10.1627556 16.3836036,10.8178815 15.5909318,11.4749186 C15.2365957,11.7686249 14.7112516,11.7194741 14.4175453,11.3651372 C14.1238391,11.0107995 14.1729899,10.485456 14.5273275,10.1917497 C15.2426977,9.59878677 15.823684,9.0039125 16.2255098,8.55724638 C16.2973437,8.47739602 16.3632903,8.40246265 16.4230905,8.33333158 C16.3632919,8.26420052 16.2973469,8.18926953 16.225513,8.10941917 C15.8236903,7.66275305 15.2427088,7.06787998 14.5273419,6.47491743 C13.0729656,5.26939591 11.1776652,4.16666698 9.16658878,4.16666698 C8.67510641,4.16666698 8.18976649,4.23233223 7.71394901,4.35045196 Z M18.1676483,8.83191494 C18.3882475,8.53628383 18.3884048,8.13059471 18.1678057,7.8349636 L17.4999206,8.33333397 L18.1676483,8.83191494 Z M3.80583492,6.47491663 C3.09046877,7.06787958 2.50948676,7.66275305 2.10766436,8.10941917 C2.03583004,8.18927033 1.96988466,8.26420291 1.91008512,8.33333397 C1.96988456,8.40246503 2.03582984,8.47739841 2.10766397,8.55724877 C2.50948626,9.00391488 3.09046798,9.59878756 3.80583531,10.1917505 C5.26021137,11.397272 7.15551235,12.5 9.16658878,12.5 C9.66216798,12.5 10.151468,12.4332501 10.6310247,12.3132866 C11.077504,12.2015978 11.529989,12.4729993 11.6416778,12.9194786 C11.7533666,13.365958 11.4819652,13.8184439 11.0354859,13.9301327 C10.4380424,14.0795861 9.81259261,14.1666677 9.16658878,14.1666677 C6.57529059,14.1666677 4.30392486,12.7693965 2.74222827,11.4749178 C1.94955928,10.8178807 1.31015314,10.1627532 0.868596558,9.67191929 C0.647334574,9.42596428 0.474481889,9.21984504 0.355620602,9.07345364 C0.296159709,9.00022019 0.250119595,8.94182194 0.21819843,8.90073288 C0.202235115,8.88018517 0.189794087,8.86395443 0.180962517,8.8523498 L0.170429881,8.83844602 L0.167212074,8.83416641 L0.166118727,8.83270649 C0.165946122,8.83247522 0.16537039,8.83170434 0.833255924,8.33333397 C0.165370887,7.83496281 0.165446436,7.83486108 0.165525561,7.83475538 L0.167212571,7.83250153 L0.170430328,7.82822112 L0.180962964,7.81431814 C0.189794534,7.80271351 0.202235612,7.78648277 0.218198877,7.76593427 C0.250120092,7.7248452 0.296160205,7.66644775 0.355621148,7.5932143 C0.474482485,7.4468225 0.64733522,7.24070326 0.868597154,6.99474865 C1.31015364,6.50391469 1.94955928,5.84878807 2.74222628,5.19175092 C3.09656275,4.89804345 3.62190613,4.94719305 3.91561355,5.30152957 C4.20932078,5.6558661 4.16017119,6.18120916 3.80583492,6.47491663 Z M0.165525561,7.83475538 C-0.0550718558,8.1303857 -0.0552267285,8.53607402 0.16537039,8.83170434 L0.833255924,8.33333397 L0.165525561,7.83475538 Z" id="Vector-(Stroke)"></path>
                        </g>
                    </g>
                </g>
            </g>
        </g>
    </g>
</svg>