<?xml version="1.0" encoding="UTF-8"?>
<svg width="20px" height="20px" viewBox="0 0 20 20" version="1.1" xmlns="http://www.w3.org/2000/svg" xmlns:xlink="http://www.w3.org/1999/xlink">
    <title>icon/signout</title>
    <g id="Design" stroke="none" stroke-width="1" fill="none" fill-rule="evenodd" stroke-linecap="round" stroke-linejoin="round">
        <g id="My-Profile" transform="translate(-374.000000, -684.000000)">
            <g id="Account" transform="translate(0.000000, 640.000000)">
                <g id="Signout" transform="translate(18.000000, 42.000000)">
                    <g id="icon/signout" transform="translate(354.000000, 0.000000)">
                        <polygon id="Background" points="0 0 24 0 24 24 0 24"></polygon>
                        <path d="M13.9479593,2 C14.0850636,2.06659574 15.0226251,2.4493617 15.0257137,3 C15.0332743,4.31758865 15.0322828,6.31721314 15.0227393,8.99887347 L14.0203638,8.99887347 C14.0204925,6.48146806 14.020412,4.60530082 14.0201225,3.37037174 C14.0200742,3.02345685 14.0035213,3.00420153 13.6960622,3.00420153 C10.1257039,3.003776 6.89425395,3.003776 3.32394396,3.00420153 C3.02357888,3.00425472 3.0084255,3.02058451 3.0084255,3.34925472 C3.00799117,8.9419143 3.00799117,15.0610106 3.0084255,20.653617 C3.0084255,20.9814894 3.02488188,20.9998404 3.32384744,20.9998936 C6.89415743,21.0005319 10.1171138,21.0005319 13.687472,21 C13.9926148,20.9999468 14.0115324,20.9771809 14.0116289,20.6329255 C14.0119506,19.669805 14.012031,18.119607 14.0118702,15.9823318 L15.0227393,15.9823318 C15.0356321,17.8293355 15.0383024,19.2047816 15.0307503,20.1086702 C15.0227393,21.0674928 15.0227393,22 13.9255671,22 L3.10996093,22 C2,22 2,21.1758586 2,20.7234043 L2,3.27659574 C2,2 2,2 3.10996093,2 L13.9479593,2 Z M22,12.6357979 C20.7495084,14.0243617 19.4990167,15.4129255 18.2461121,16.8042021 C17.9625895,16.4845213 17.7105318,16.2004255 17.4665817,15.9253191 C18.2413827,15.073883 19.0234708,13.9449431 19.805559,13.085475 C19.792336,13.0559005 19.7790647,13.0262197 19.7658417,12.9966452 L10.9985352,12.9966452 L10.9985352,12 L19.7866896,12 C18.9808097,11.1130851 18.1959226,10.2635638 17.4249823,9.41510638 C17.7300285,9.07984043 17.9883116,8.79595745 18.2575495,8.5 C18.2991489,8.54329787 18.3639128,8.60739362 18.4253949,8.67510638 C19.5511366,9.91515957 20.6762027,11.1559574 21.8024752,12.3954255 C21.8637644,12.4628723 21.9339332,12.5204255 22,12.5826064 L22,12.6357979 Z" id="signout" fill="#F6E3D2"></path>
                    </g>
                </g>
            </g>
        </g>
    </g>
</svg>