<?xml version="1.0" encoding="UTF-8"?><svg version="1.1" width="24px" height="22px" viewBox="0 0 24.0 22.0" xmlns="http://www.w3.org/2000/svg" xmlns:xlink="http://www.w3.org/1999/xlink"><defs><clipPath id="i0"><path d="M9.50598603,8.54802598 C9.71582545,8.66570844 9.83838738,8.83230468 9.86108048,9.04536298 C9.86960237,9.12506391 9.87065564,9.20552848 9.87070351,9.28559114 C9.87113439,13.2353488 9.87156527,17.1851065 9.86907574,21.1348642 C9.86897998,21.266855 9.8651978,21.4056785 9.81866257,21.5295908 C9.69255783,21.8654761 9.30347159,22.0465013 8.87488785,21.9896697 C8.50485616,21.9405951 8.20055787,21.6468311 8.19222749,21.3102223 C8.18279597,20.9294826 8.18969008,20.5483811 8.18969008,20.1674806 L8.18930707,9.18032804 C8.18916344,8.88109788 8.32666261,8.64561239 8.64743015,8.50634678 C8.93813172,8.38006321 9.23137071,8.39409025 9.50598603,8.54802598 Z M21.004138,8.43070525 C21.3943254,8.45156495 21.7224179,8.72000796 21.7544947,9.04853816 L21.7610238,9.17857968 L21.7614846,15.2236116 C21.7614367,17.2018264 21.7619154,19.1800412 21.7602398,21.1582962 C21.760144,21.2711958 21.7633038,21.3887979 21.7290248,21.4961108 C21.6220225,21.831554 21.2455276,22.0289374 20.8112945,21.9926439 C20.4336027,21.9610931 20.1146544,21.6773369 20.0867428,21.3470383 C20.0833437,21.3070471 20.0850672,21.2668148 20.0850672,21.2267433 C20.0850193,17.2168181 20.0848278,13.2068928 20.0853544,9.19696757 C20.0854023,8.70987955 20.457349,8.40144541 21.004138,8.43070525 Z M3.10744911,11.236524 C3.5390969,11.2422549 3.89486162,11.5241623 3.92722562,11.8872577 C3.93076843,11.9271684 3.92899703,11.9674007 3.92899703,12.0075124 C3.92909278,15.0813638 3.92938003,18.1552955 3.92870977,21.2291468 C3.92861402,21.6985101 3.5756261,22.007105 3.05636568,21.9968962 C2.61949944,21.9882549 2.27029369,21.7074328 2.25755874,21.3364999 C2.24554193,20.9892804 2.25281904,20.6416187 2.25277117,20.2941179 L2.25272329,16.6255441 C2.25277117,15.0752546 2.25095189,13.5249248 2.25392019,11.9746353 C2.25482983,11.5260915 2.60398769,11.2301571 3.10744911,11.236524 Z M14.9530307,11.2370018 C15.4225482,11.2288428 15.7921969,11.5135636 15.8229331,11.9077275 L15.8248002,11.9678097 L15.82413,21.2095049 C15.8240342,21.7047921 15.4672162,22.0150349 14.9248318,21.9958633 C14.5295696,21.9818363 14.1996099,21.7266566 14.1549419,21.3957953 C14.1433559,21.3098244 14.1434996,21.2224468 14.1434996,21.1357122 L14.1430208,16.6251141 C14.1430687,15.0882085 14.1419197,13.5512627 14.1437868,12.014317 C14.1443613,11.5483298 14.4638362,11.2454823 14.9530307,11.2370018 Z M23.1392434,1.54688402e-06 C23.5848709,-0.000680164818 23.8255423,0.224033845 24,0.529373201 L24,4.62149129 C23.83258,4.90958824 23.6136921,5.14025068 23.1869755,5.14696276 C22.6999834,5.15463945 22.3310528,4.86730615 22.3258822,4.45674389 C22.3183179,3.85518878 22.3234406,3.25347291 22.3232012,2.65183742 L22.3232012,2.45927709 L22.2213695,2.39521089 C22.1808187,2.46004074 22.1563063,2.53821436 22.0975149,2.58769083 C20.0901803,4.27728618 18.0796381,5.96418865 16.0694788,7.65133228 C15.634767,8.01615593 15.3233352,8.05120344 14.7943082,7.79735016 C12.5027831,6.69785518 10.2093909,5.60093248 7.92227048,4.49492638 C7.73679982,4.40525781 7.64128769,4.43295017 7.50311827,4.54926609 C5.5129711,6.22487459 3.51937687,7.89766963 1.51884067,9.56451625 C1.37875621,9.68127429 1.18979062,9.78553259 1.00211766,9.82697064 C0.628208035,9.90944482 0.273496582,9.75153007 0.0986543329,9.47605345 C-0.0772411831,9.19900933 -0.0161517225,8.87039875 0.267703616,8.63109501 C1.15541583,7.88271817 2.04619208,7.13695383 2.9356757,6.39010429 L6.8710147,3.08607283 C7.25981369,2.75979339 7.59393857,2.72136975 8.0709247,2.95002258 C10.3833714,4.05856079 12.6958182,5.16713919 15.0064935,6.27824969 C15.1342739,6.33970341 15.2212641,6.37254035 15.3520607,6.26213266 C17.2328118,4.6743037 19.1202176,3.09202126 21.005852,1.50825171 C21.0282578,1.4894418 21.047839,1.46830076 21.0949966,1.42308465 C21.0060435,1.41729699 20.9423208,1.4096203 20.8785025,1.40953992 C20.1699413,1.40865569 19.4613323,1.41010261 18.7527712,1.40857531 C18.2399261,1.40744993 17.8665431,1.11899125 17.851941,0.716829138 C17.8376262,0.32362986 18.212206,0.00482615237 18.7206465,0.00293712385 C20.1934962,-0.00252900125 21.6663937,0.00225385821 23.1392434,1.54688402e-06 Z"></path></clipPath></defs><g transform="translate(-27.0 -13.0)"><g transform="translate(27.0 13.0)"><g clip-path="url(#i0)"><polygon points="-1.38777878e-17,-1.08756117e-13 24,-1.08756117e-13 24,22 -1.38777878e-17,22 -1.38777878e-17,-1.08756117e-13" stroke="none" fill="#FFFFFF"></polygon></g></g></g></svg>