<?xml version="1.0" encoding="UTF-8"?>
<svg width="20px" height="24px" viewBox="0 0 20 24" version="1.1" xmlns="http://www.w3.org/2000/svg" xmlns:xlink="http://www.w3.org/1999/xlink">
    <title>icon/terms</title>
    <g id="Design" stroke="none" stroke-width="1" fill="none" fill-rule="evenodd" stroke-linecap="round" stroke-linejoin="round">
        <g id="My-Profile" transform="translate(-374.000000, -583.000000)">
            <g id="Other" transform="translate(-1.000000, 376.000000)">
                <g id="Terms" transform="translate(19.000000, 207.000000)">
                    <g id="icon/terms" transform="translate(354.000000, 0.000000)">
                        <polygon id="Background" points="0 0 24 0 24 24 0 24"></polygon>
                        <path d="M12.2580646,0.692713846 L20.7965538,3.87732923 C21.0853846,3.98507077 21.2769231,4.26092308 21.2769231,4.56923077 L21.2769231,12 C21.2769231,15.516 18.9322154,18.3576 16.7540308,20.2532308 C15.6491077,21.2148 14.5476923,21.9675692 13.7240308,22.4796 C13.3114154,22.7360308 12.9664615,22.9333846 12.7230462,23.0674154 C12.6012923,23.1344308 12.5047662,23.1857538 12.4376954,23.2207385 C12.4041508,23.2382769 12.3779631,23.2516615 12.3596492,23.2610769 C12.3504831,23.2656923 12.3432923,23.2692923 12.3381323,23.2719692 C12.3297231,23.2761231 12.3294369,23.2764022 12.3293077,23.2764022 L12.3280769,23.2751562 C12.1217077,23.3796 11.8782923,23.3796 11.6711815,23.2765846 L11.6750769,23.2671562 L11.6618677,23.2719692 C11.6567077,23.2692923 11.6495169,23.2656923 11.6403508,23.2610769 C11.6220369,23.2516615 11.5958492,23.2382769 11.5623046,23.2207385 C11.4952338,23.1857538 11.3987077,23.1344308 11.2769446,23.0674154 C11.03352,22.9333846 10.6886215,22.7360308 10.2760062,22.4796 C9.45232615,21.9675692 8.35091077,21.2148 7.24597846,20.2532308 C5.06775692,18.3576 2.72307692,15.516 2.72307692,12 L2.72307692,4.56923077 L2.73004139,4.46784967 C2.76684068,4.20169801 2.94670256,3.97309949 3.20347385,3.87732923 L11.7419354,0.692713846 C11.9083754,0.630636923 12.0916246,0.630636923 12.2580646,0.692713846 Z M11.9990769,2.17215615 L4.19907692,5.08115615 L4.2,12 C4.2,14.8532308 6.12455077,17.3193231 8.21556,19.1390769 C9.24524308,20.0352 10.2784431,20.7420923 11.05572,21.2252308 C11.4435877,21.4663385 11.76576,21.6504923 11.9892831,21.7736308 C11.9931714,21.7757708 11.9970297,21.7778922 12.0008579,21.7799951 L12.0107169,21.7736308 C12.23424,21.6504923 12.5564123,21.4663385 12.9443077,21.2252308 C13.7215385,20.7420923 14.7547385,20.0352 15.7844308,19.1390769 C17.8754769,17.3193231 19.8,14.8532308 19.8,12 L19.7990769,5.08115615 L11.9990769,2.17215615 Z M16.1492123,9.91845231 L11.07228,14.9953662 L10.9921901,15.0634891 C10.7396904,15.245175 10.3855883,15.2224643 10.1584892,14.9953569 L7.85079692,12.6876646 L7.78266471,12.6075747 C7.6009788,12.355075 7.62368954,12.0009729 7.85079692,11.7738738 C8.10313846,11.5215323 8.51225538,11.5215323 8.76459692,11.7738738 L10.6150769,13.6241562 L15.2354123,9.00464308 L15.3155022,8.93651086 C15.568002,8.75482495 15.9221049,8.77753569 16.1492123,9.00464308 C16.4015446,9.25698462 16.4015446,9.66610154 16.1492123,9.91844308 Z" id="terms" fill="#F6E3D2"></path>
                    </g>
                </g>
            </g>
        </g>
    </g>
</svg>